<svg width="56" height="37" viewBox="0 0 56 37" fill="none" xmlns="http://www.w3.org/2000/svg">
    <symbol id="21+"  viewBox="0 0 56 37">
<rect x="0.0933838" y="0.019043" width="55.3846" height="36" rx="2.80584" />
<path d="M48.555 18.9549V17.0621H45.4966V13.8652H43.3058V17.0621H40.2473V18.9549H43.3058V22.1729H45.4966V18.9549H48.555Z" fill="#000055"/>
<path d="M16.7602 8.32672C17.8481 8.32672 18.85 8.44946 19.7661 8.69495C20.6821 8.9229 21.4741 9.2736 22.1421 9.74703C22.8101 10.2029 23.3254 10.764 23.688 11.4304C24.0697 12.0967 24.2605 12.8507 24.2605 13.6923C24.2605 14.6918 24.0315 15.6475 23.5735 16.5593C23.1345 17.4711 22.4856 18.3566 21.6268 19.2158C20.7871 20.075 19.7565 20.9166 18.5351 21.7408C17.3137 22.5474 15.9396 23.354 14.4128 24.1606H24.3464V27.7113H8.40118V24.1606C9.79436 23.2312 11.1589 22.3282 12.4948 21.4514C13.8308 20.5572 15.014 19.6892 16.0446 18.8475C17.0942 17.9883 17.934 17.1554 18.5637 16.3488C19.1935 15.5423 19.5084 14.7444 19.5084 13.9554C19.5084 13.1312 19.2222 12.5263 18.6496 12.1405C18.0771 11.7372 17.3996 11.5356 16.6171 11.5356C16.1973 11.5356 15.7774 11.6057 15.3575 11.746C14.9568 11.8687 14.5941 12.0791 14.2697 12.3772C13.9644 12.6753 13.7163 13.0874 13.5254 13.6134C13.3346 14.1219 13.2582 14.7532 13.2964 15.5072H8.6302C8.59203 14.385 8.76379 13.3767 9.14548 12.4824C9.54626 11.5882 10.1093 10.8342 10.8345 10.2205C11.5597 9.60675 12.428 9.14208 13.4395 8.82646C14.451 8.4933 15.5579 8.32672 16.7602 8.32672Z" fill="#000055"/>
<path d="M31.3987 27.7113V14.9022H26.6752V11.7197C27.534 11.7022 28.2783 11.632 28.9081 11.5093C29.557 11.369 30.1105 11.1761 30.5685 10.9306C31.0265 10.6851 31.4082 10.3783 31.7136 10.0101C32.0189 9.62429 32.2861 9.16839 32.5151 8.64235H36.0935V27.7113H31.3987Z" fill="#000055"/>
    </symbol>
</svg>
