<svg width="168" height="57" viewBox="0 0 168 57" fill="none" xmlns="http://www.w3.org/2000/svg">
<rect x="0.70146" y="0.90019" width="166.597" height="54.5971" rx="6.31314" stroke="#EDEDED" stroke-width="1.40292"/>
<path d="M33.9755 28.6108H33.9754L33.9754 28.6206C33.977 30.0727 34.406 31.4923 35.2089 32.7022C35.8917 33.7312 36.8192 34.5698 37.9039 35.1456C37.457 36.4094 36.8384 37.6069 36.0648 38.7039L36.0597 38.7111L36.0549 38.7183C35.4243 39.6615 34.8243 40.521 34.1468 41.1536C33.4837 41.7728 32.793 42.1304 31.978 42.1436L31.9732 42.1437C31.1345 42.163 30.5855 41.9293 29.88 41.6289L29.862 41.6213C29.1285 41.309 28.27 40.952 26.962 40.952C25.6531 40.952 24.7848 41.282 24.0352 41.5951C23.9865 41.6154 23.9386 41.6355 23.8914 41.6554C23.2242 41.9354 22.6927 42.1586 21.9234 42.1908C21.2009 42.217 20.5009 41.8585 19.774 41.1763C19.0463 40.4934 18.3823 39.572 17.729 38.6379C16.4891 36.8254 15.3751 34.2505 14.9021 31.569C14.428 28.8807 14.6118 26.1719 15.8539 24.0215L15.854 24.0215L15.8594 24.0117C16.4255 22.9944 17.2455 22.1411 18.2395 21.5349C19.2323 20.9294 20.3648 20.5911 21.527 20.5528C22.3652 20.5366 23.2056 20.8205 24.0637 21.1594C24.1689 21.201 24.2761 21.244 24.384 21.2874C24.6957 21.4126 25.0134 21.5402 25.3075 21.6411C25.7031 21.7769 26.1363 21.8945 26.5604 21.8945C26.9933 21.8945 27.4617 21.7507 27.884 21.5983C28.1153 21.5148 28.3896 21.4062 28.6666 21.2965C28.8788 21.2125 29.0926 21.1278 29.2898 21.0533C30.2878 20.6766 31.3135 20.3787 32.3152 20.4839L32.3408 20.4866L32.3665 20.4874C33.3596 20.5184 34.3318 20.7806 35.2058 21.2531C35.8716 21.6131 36.4664 22.0875 36.964 22.6529C36.1544 23.2732 35.4752 24.0514 34.9691 24.943C34.3339 26.0623 33.9921 27.324 33.9755 28.6108Z" fill="#EDEDED" stroke="#EDEDED" stroke-width="1.40292"/>
<path d="M30.3142 16.8453L30.3141 16.8452L30.3065 16.8547C29.829 17.4486 29.2229 17.9265 28.5339 18.2522C28.0538 18.4792 27.5422 18.6282 27.0183 18.6951C27.0474 18.17 27.148 17.6503 27.318 17.1504C27.5631 16.4302 27.9477 15.7653 28.4498 15.1938L28.45 15.1936C29.3141 14.2094 30.4612 13.5272 31.7244 13.2332C31.6586 14.5513 31.1677 15.8207 30.3142 16.8453Z" fill="#EDEDED" stroke="#EDEDED" stroke-width="1.40292"/>
<path d="M59.8876 37.9698L59.7263 37.4932H59.2231H52.5964H52.0934L51.932 37.9696L50.502 42.1922H49.1972L54.9674 26.21H56.8986L62.6688 42.1922H61.3163L59.8876 37.9698ZM52.6186 35.8006L52.3036 36.7277H53.2827H58.5355H59.5145L59.1997 35.8008L56.6103 28.1746L56.4487 27.6987H55.9461H55.8736H55.3711L55.2094 28.1745L52.6186 35.8006Z" fill="#EDEDED" stroke="#EDEDED" stroke-width="1.40292"/>
<path d="M71.9343 42.3253H71.916L71.8977 42.3262C71.2233 42.3615 70.5527 42.2061 69.9625 41.878C69.3723 41.5498 68.8865 41.0621 68.5606 40.4706L68.5261 40.4079C69.2171 41.118 70.1392 41.5229 71.2001 41.5229C72.4248 41.5229 73.4661 41.0072 74.1849 40.0943C74.8912 39.1971 75.2512 37.9645 75.2512 36.5572C75.2512 35.1603 74.8906 33.931 74.1849 33.0344C73.4671 32.1225 72.4264 31.6024 71.2001 31.6024C69.9831 31.6024 68.9505 32.1383 68.2391 33.0501C67.5385 33.9481 67.1737 35.1748 67.1737 36.5572C67.1737 37.9499 67.5379 39.1799 68.2392 40.0786C68.2468 40.0883 68.2544 40.098 68.2621 40.1077H67.9462H67.886H67.1846V40.8091V46.3858H65.9857V30.9204H67.1012V32.3271V33.0286H67.8027H67.8505H68.2549L68.4576 32.6786C68.8014 32.0849 69.2997 31.5955 69.8995 31.2625C70.4993 30.9295 71.1781 30.7653 71.8638 30.7874L71.8751 30.7878L71.8865 30.7878C73.2946 30.7878 74.4276 31.3369 75.2211 32.296C76.0251 33.2677 76.5225 34.714 76.5225 36.5572C76.5225 38.4072 76.0275 39.8538 75.2303 40.8236C74.4437 41.7805 73.3231 42.3253 71.9343 42.3253Z" fill="#EDEDED" stroke="#EDEDED" stroke-width="1.40292"/>
<path d="M85.8845 42.3252H85.8661L85.8478 42.3262C85.1735 42.3615 84.5028 42.2061 83.9126 41.878C83.3225 41.5498 82.8366 41.0621 82.5108 40.4706L82.4762 40.4079C83.1673 41.118 84.0894 41.5229 85.1503 41.5229C86.3749 41.5229 87.4163 41.0072 88.135 40.0943C88.8414 39.1971 89.2013 37.9644 89.2013 36.5572V35.8557H89.1697C89.0678 34.7494 88.72 33.7776 88.1351 33.0344C87.4173 32.1224 86.3765 31.6024 85.1503 31.6024C83.9333 31.6024 82.9006 32.1382 82.1893 33.0501C81.4887 33.9481 81.1238 35.1748 81.1238 36.5572C81.1238 37.9499 81.488 39.1799 82.1893 40.0786C82.1969 40.0883 82.2045 40.098 82.2122 40.1077H81.8964H81.8362H81.1347V40.8091V46.3858H79.9359V30.9204H81.0513V32.3271V33.0286H81.7528H81.8006H82.205L82.4077 32.6786C82.7515 32.0849 83.2498 31.5955 83.8496 31.2625C84.4494 30.9295 85.1282 30.7653 85.814 30.7874L85.8253 30.7878H85.8366C87.2447 30.7878 88.3777 31.3369 89.1713 32.296C89.9752 33.2677 90.4726 34.714 90.4726 36.5572C90.4726 38.4072 89.9776 39.8537 89.1804 40.8236C88.3939 41.7805 87.2733 42.3252 85.8845 42.3252Z" fill="#EDEDED" stroke="#EDEDED" stroke-width="1.40292"/>
<path d="M100.089 41.2402C99.2838 40.619 98.7396 39.78 98.5249 38.751L99.8208 38.751C100.364 40.5882 102.318 41.607 104.549 41.607C105.759 41.607 106.853 41.2955 107.664 40.7161C108.486 40.1299 109.021 39.2593 109.021 38.2191C109.021 37.3465 108.699 36.6083 108.016 36.0298C107.372 35.4849 106.445 35.1124 105.283 34.8267L105.279 34.826L103.027 34.2833C101.495 33.9133 100.467 33.3904 99.8246 32.7461C99.2039 32.123 98.8891 31.3311 98.8891 30.2785C98.8891 29.0013 99.438 27.935 100.396 27.1723C101.365 26.4006 102.782 25.92 104.514 25.92C106.223 25.92 107.605 26.399 108.556 27.1688C109.317 27.7845 109.825 28.6034 110.011 29.577H108.751C108.547 28.8001 108.103 28.1504 107.467 27.675C106.677 27.0842 105.636 26.7948 104.477 26.7948C103.318 26.7948 102.279 27.0869 101.509 27.6543C100.726 28.2323 100.245 29.0849 100.245 30.098C100.245 30.9281 100.573 31.6181 101.249 32.1539C101.879 32.6534 102.788 33.0015 103.935 33.285L103.936 33.2852L105.852 33.7555L105.852 33.7555L105.857 33.7569C107.593 34.1674 108.712 34.6988 109.396 35.3534C110.049 35.9785 110.366 36.7756 110.366 37.8936C110.366 39.3146 109.81 40.4301 108.823 41.2071C107.819 41.9983 106.31 42.4818 104.356 42.4818C102.544 42.4818 101.091 42.014 100.089 41.2402Z" fill="#EDEDED" stroke="#EDEDED" stroke-width="1.40292"/>
<path d="M114.072 31.5768H112.93V30.9194H114.072H114.773V30.2179V27.9198H115.985V30.2179V30.9194H116.686H118.395V31.5768H116.686H115.985V32.2782V39.2659C115.985 39.8966 116.123 40.5082 116.555 40.9559C116.992 41.4087 117.599 41.5588 118.228 41.5588V41.5589L118.24 41.5587C118.288 41.5578 118.335 41.5566 118.383 41.555V42.2362C118.14 42.2593 117.896 42.2687 117.652 42.2641L117.652 42.264H117.639C116.415 42.264 115.752 42.0287 115.379 41.6703C115.013 41.3189 114.773 40.701 114.773 39.5434V32.2782V31.5768H114.072Z" fill="#EDEDED" stroke="#EDEDED" stroke-width="1.40292"/>
<path d="M130.539 37.2576H130.566V36.5562C130.566 35.0923 130.232 33.8342 129.529 32.9258C128.808 31.9942 127.755 31.5043 126.503 31.5043C125.249 31.5043 124.196 31.9986 123.477 32.9311C122.775 33.8405 122.441 35.098 122.441 36.5562C122.441 38.0247 122.774 39.2831 123.478 40.1904C124.199 41.1211 125.252 41.6066 126.503 41.6066C127.754 41.6066 128.807 41.1212 129.529 40.1905C130.118 39.4313 130.447 38.4261 130.539 37.2576ZM121.193 36.5562C121.193 34.6983 121.738 33.2591 122.638 32.291C123.532 31.3283 124.838 30.7635 126.503 30.7635C128.174 30.7635 129.481 31.3287 130.373 32.2907C131.271 33.2584 131.814 34.6974 131.814 36.5562C131.814 38.4217 131.273 39.8603 130.378 40.8258C129.488 41.7855 128.182 42.3488 126.503 42.3488C124.825 42.3488 123.519 41.7855 122.629 40.8258C121.734 39.8603 121.193 38.4217 121.193 36.5562Z" fill="#EDEDED" stroke="#EDEDED" stroke-width="1.40292"/>
<path d="M136.561 35.4133V42.1925H135.362L135.362 30.9203H136.44V32.3762V33.0777H137.142H137.202H137.214C136.995 33.3683 136.824 33.6935 136.71 34.0408C136.565 34.4829 136.514 34.9505 136.561 35.4133ZM140.253 30.7876C140.316 30.7874 140.378 30.789 140.441 30.7923V31.7717C140.287 31.7588 140.132 31.7542 139.977 31.7578C139.506 31.7423 139.037 31.8269 138.601 32.0064C138.364 32.1043 138.139 32.2291 137.931 32.378C138.079 31.9298 138.361 31.536 138.741 31.2508C139.167 30.9305 139.691 30.7668 140.224 30.7871L140.239 30.7877L140.253 30.7876Z" fill="#EDEDED" stroke="#EDEDED" stroke-width="1.40292"/>
<path d="M152.214 39.8717C151.589 41.3161 149.924 42.3488 147.681 42.3488C146.001 42.3488 144.705 41.7905 143.825 40.8424C142.939 39.8883 142.407 38.4654 142.407 36.6163C142.407 34.761 142.943 33.3019 143.825 32.3159C144.699 31.3379 145.968 30.7635 147.572 30.7635C149.157 30.7635 150.387 31.3029 151.225 32.2202C152.07 33.1446 152.583 34.524 152.583 36.3142V36.5041H144.332H143.63V37.2056V37.3333C143.586 37.8882 143.657 38.4465 143.841 38.9724C144.028 39.5086 144.327 39.9988 144.718 40.4105C145.109 40.8222 145.583 41.146 146.109 41.3604C146.621 41.5691 147.17 41.6695 147.722 41.6554C148.472 41.7159 149.222 41.5379 149.866 41.1461C150.382 40.8314 150.808 40.3921 151.106 39.8717L152.214 39.8717ZM143.705 34.6858H143.643V35.3699C143.643 35.3763 143.643 35.3826 143.643 35.389L144.344 35.3881V36.0887H150.681H151.345L151.381 35.4262C151.41 34.9103 151.332 34.3939 151.152 33.9097C150.971 33.4254 150.693 32.9836 150.334 32.612C149.975 32.2404 149.543 31.947 149.065 31.7503C148.59 31.5549 148.08 31.459 147.567 31.4687C147.054 31.4669 146.545 31.5661 146.07 31.7607L146.336 32.4098L146.07 31.7607C145.593 31.9564 145.158 32.2449 144.793 32.6093C144.427 32.9738 144.137 33.4071 143.94 33.8842C143.833 34.1428 143.754 34.4116 143.705 34.6858Z" fill="#EDEDED" stroke="#EDEDED" stroke-width="1.40292"/>
<mask id="path-12-inside-1_2_41" fill="white">
<path d="M52.956 12.4233C53.5014 12.3842 54.0488 12.4666 54.5585 12.6646C55.0683 12.8626 55.5277 13.1712 55.9038 13.5683C56.2798 13.9654 56.563 14.441 56.7329 14.9607C56.9029 15.4805 56.9554 16.0315 56.8866 16.5741C56.8866 19.2428 55.4442 20.7768 52.956 20.7768H49.9386V12.4233H52.956ZM51.236 19.5955H52.811C53.2008 19.6188 53.5909 19.5549 53.9528 19.4084C54.3148 19.2619 54.6395 19.0366 54.9034 18.7488C55.1673 18.461 55.3637 18.118 55.4783 17.7448C55.5929 17.3715 55.6228 16.9774 55.5659 16.5911C55.6187 16.2063 55.5857 15.8146 55.4694 15.4441C55.353 15.0736 55.1561 14.7334 54.8928 14.4479C54.6295 14.1624 54.3064 13.9386 53.9465 13.7927C53.5865 13.6468 53.1988 13.5823 52.811 13.6038H51.236V19.5955Z"/>
</mask>
<path d="M52.956 12.4233C53.5014 12.3842 54.0488 12.4666 54.5585 12.6646C55.0683 12.8626 55.5277 13.1712 55.9038 13.5683C56.2798 13.9654 56.563 14.441 56.7329 14.9607C56.9029 15.4805 56.9554 16.0315 56.8866 16.5741C56.8866 19.2428 55.4442 20.7768 52.956 20.7768H49.9386V12.4233H52.956ZM51.236 19.5955H52.811C53.2008 19.6188 53.5909 19.5549 53.9528 19.4084C54.3148 19.2619 54.6395 19.0366 54.9034 18.7488C55.1673 18.461 55.3637 18.118 55.4783 17.7448C55.5929 17.3715 55.6228 16.9774 55.5659 16.5911C55.6187 16.2063 55.5857 15.8146 55.4694 15.4441C55.353 15.0736 55.1561 14.7334 54.8928 14.4479C54.6295 14.1624 54.3064 13.9386 53.9465 13.7927C53.5865 13.6468 53.1988 13.5823 52.811 13.6038H51.236V19.5955Z" fill="#EDEDED"/>
<path d="M52.956 12.4233V13.8262H53.0062L53.0564 13.8226L52.956 12.4233ZM56.8866 16.5741L55.4948 16.3976L55.4837 16.4855V16.5741H56.8866ZM49.9386 20.7768H48.5357V22.1798H49.9386V20.7768ZM49.9386 12.4233V11.0204H48.5357V12.4233H49.9386ZM51.236 19.5955H49.8331V20.9984H51.236V19.5955ZM52.811 19.5955L52.8947 18.1951L52.8529 18.1926H52.811V19.5955ZM55.5659 16.5911L54.176 16.4004L54.1489 16.5981L54.178 16.7956L55.5659 16.5911ZM52.811 13.6038V15.0067H52.8499L52.8888 15.0046L52.811 13.6038ZM51.236 13.6038V12.2009H49.8331V13.6038H51.236ZM53.0564 13.8226C53.3948 13.7983 53.7343 13.8495 54.0506 13.9723L55.0665 11.3568C54.3632 11.0837 53.6081 10.97 52.8555 11.024L53.0564 13.8226ZM54.0506 13.9723C54.3668 14.0951 54.6518 14.2866 54.8851 14.533L56.9224 12.6037C56.4036 12.0559 55.7698 11.63 55.0665 11.3568L54.0506 13.9723ZM54.8851 14.533C55.1184 14.7793 55.2941 15.0743 55.3995 15.3968L58.0664 14.5247C57.8319 13.8076 57.4412 13.1515 56.9224 12.6037L54.8851 14.533ZM55.3995 15.3968C55.5049 15.7192 55.5375 16.0611 55.4948 16.3976L58.2784 16.7505C58.3733 16.002 58.3009 15.2418 58.0664 14.5247L55.3995 15.3968ZM55.4837 16.5741C55.4837 17.6653 55.191 18.3323 54.8304 18.7172C54.482 19.0892 53.9059 19.3739 52.956 19.3739V22.1798C54.4943 22.1798 55.8835 21.6974 56.8783 20.6352C57.8611 19.586 58.2895 18.1515 58.2895 16.5741H55.4837ZM52.956 19.3739H49.9386V22.1798H52.956V19.3739ZM51.3415 20.7768V12.4233H48.5357V20.7768H51.3415ZM49.9386 13.8262H52.956V11.0204H49.9386V13.8262ZM51.236 20.9984H52.811V18.1926H51.236V20.9984ZM52.7273 20.9959C53.3253 21.0316 53.9237 20.9336 54.479 20.7089L53.4266 18.1079C53.258 18.1761 53.0763 18.2059 52.8947 18.1951L52.7273 20.9959ZM54.479 20.7089C55.0343 20.4842 55.5326 20.1385 55.9374 19.697L53.8694 17.8007C53.7465 17.9347 53.5952 18.0397 53.4266 18.1079L54.479 20.7089ZM55.9374 19.697C56.3423 19.2554 56.6436 18.7292 56.8194 18.1565L54.1372 17.333C54.0838 17.5069 53.9923 17.6666 53.8694 17.8007L55.9374 19.697ZM56.8194 18.1565C56.9952 17.5839 57.0412 16.9792 56.9538 16.3866L54.178 16.7956C54.2045 16.9755 54.1905 17.1591 54.1372 17.333L56.8194 18.1565ZM56.9558 16.7818C57.0367 16.192 56.9862 15.5917 56.8078 15.0238L54.1309 15.8645C54.1853 16.0376 54.2007 16.2206 54.176 16.4004L56.9558 16.7818ZM56.8078 15.0238C56.6295 14.4558 56.3277 13.9344 55.9242 13.4968L53.8615 15.399C53.9845 15.5324 54.0765 15.6913 54.1309 15.8645L56.8078 15.0238ZM55.9242 13.4968C55.5206 13.0592 55.0252 12.7163 54.4736 12.4926L53.4193 15.0928C53.5875 15.161 53.7385 15.2656 53.8615 15.399L55.9242 13.4968ZM54.4736 12.4926C53.922 12.2689 53.3277 12.17 52.7333 12.203L52.8888 15.0046C53.07 14.9945 53.2511 15.0246 53.4193 15.0928L54.4736 12.4926ZM52.811 12.2009H51.236V15.0067H52.811V12.2009ZM49.8331 13.6038V19.5955H52.639V13.6038H49.8331Z" fill="#EDEDED" mask="url(#path-12-inside-1_2_41)"/>
<mask id="path-14-inside-2_2_41" fill="white">
<path d="M58.352 17.6214C58.3124 17.2071 58.3598 16.7891 58.4912 16.3942C58.6225 15.9993 58.835 15.6363 59.1149 15.3283C59.3948 15.0203 59.736 14.7742 60.1166 14.6059C60.4972 14.4375 60.9088 14.3505 61.325 14.3505C61.7411 14.3505 62.1527 14.4375 62.5333 14.6059C62.9139 14.7742 63.2551 15.0203 63.535 15.3283C63.8149 15.6363 64.0274 15.9993 64.1588 16.3942C64.2901 16.7891 64.3375 17.2071 64.2979 17.6214C64.3383 18.0361 64.2915 18.4547 64.1604 18.8502C64.0294 19.2458 63.8171 19.6095 63.5371 19.9181C63.2571 20.2267 62.9156 20.4733 62.5347 20.642C62.1537 20.8107 61.7416 20.8979 61.325 20.8979C60.9083 20.8979 60.4962 20.8107 60.1152 20.642C59.7343 20.4733 59.3928 20.2267 59.1128 19.9181C58.8328 19.6095 58.6205 19.2458 58.4895 18.8502C58.3585 18.4547 58.3116 18.0361 58.352 17.6214ZM63.0182 17.6214C63.0182 16.2549 62.4043 15.4558 61.327 15.4558C60.2456 15.4558 59.6372 16.2549 59.6372 17.6214C59.6372 18.9989 60.2456 19.7918 61.327 19.7918C62.4044 19.7918 63.0182 18.9934 63.0182 17.6214H63.0182Z"/>
</mask>
<path d="M58.352 17.6214C58.3124 17.2071 58.3598 16.7891 58.4912 16.3942C58.6225 15.9993 58.835 15.6363 59.1149 15.3283C59.3948 15.0203 59.736 14.7742 60.1166 14.6059C60.4972 14.4375 60.9088 14.3505 61.325 14.3505C61.7411 14.3505 62.1527 14.4375 62.5333 14.6059C62.9139 14.7742 63.2551 15.0203 63.535 15.3283C63.8149 15.6363 64.0274 15.9993 64.1588 16.3942C64.2901 16.7891 64.3375 17.2071 64.2979 17.6214C64.3383 18.0361 64.2915 18.4547 64.1604 18.8502C64.0294 19.2458 63.8171 19.6095 63.5371 19.9181C63.2571 20.2267 62.9156 20.4733 62.5347 20.642C62.1537 20.8107 61.7416 20.8979 61.325 20.8979C60.9083 20.8979 60.4962 20.8107 60.1152 20.642C59.7343 20.4733 59.3928 20.2267 59.1128 19.9181C58.8328 19.6095 58.6205 19.2458 58.4895 18.8502C58.3585 18.4547 58.3116 18.0361 58.352 17.6214ZM63.0182 17.6214C63.0182 16.2549 62.4043 15.4558 61.327 15.4558C60.2456 15.4558 59.6372 16.2549 59.6372 17.6214C59.6372 18.9989 60.2456 19.7918 61.327 19.7918C62.4044 19.7918 63.0182 18.9934 63.0182 17.6214H63.0182Z" fill="#EDEDED"/>
<path d="M61.325 14.3505V12.9476V14.3505ZM64.2979 17.6214L62.9013 17.4878L62.8885 17.6226L62.9016 17.7574L64.2979 17.6214ZM63.0182 17.6214H61.6153V19.0243H63.0182V17.6214ZM61.327 19.7918V21.1947H61.327L61.327 19.7918ZM63.0182 17.6214H64.4211V16.2185H63.0182V17.6214ZM59.7486 17.4878C59.7275 17.2681 59.7527 17.0465 59.8223 16.8371L57.16 15.9514C56.9669 16.5318 56.8972 17.1461 56.9555 17.755L59.7486 17.4878ZM59.8223 16.8371C59.892 16.6277 60.0047 16.4352 60.1531 16.2719L58.0767 14.3847C57.6653 14.8373 57.3531 15.371 57.16 15.9514L59.8223 16.8371ZM60.1531 16.2719C60.3015 16.1086 60.4824 15.9781 60.6842 15.8888L59.549 13.3229C58.9896 13.5704 58.4881 13.932 58.0767 14.3847L60.1531 16.2719ZM60.6842 15.8888C60.886 15.7995 61.1043 15.7534 61.325 15.7534V12.9476C60.7133 12.9476 60.1084 13.0754 59.549 13.3229L60.6842 15.8888ZM61.325 15.7534C61.5456 15.7534 61.7639 15.7995 61.9657 15.8888L63.1009 13.3229C62.5416 13.0754 61.9366 12.9476 61.325 12.9476V15.7534ZM61.9657 15.8888C62.1675 15.9781 62.3484 16.1086 62.4968 16.2719L64.5732 14.3847C64.1618 13.9321 63.6603 13.5704 63.1009 13.3229L61.9657 15.8888ZM62.4968 16.2719C62.6453 16.4352 62.7579 16.6277 62.8276 16.8371L65.4899 15.9514C65.2969 15.371 64.9846 14.8373 64.5732 14.3847L62.4968 16.2719ZM62.8276 16.8371C62.8972 17.0465 62.9224 17.2681 62.9013 17.4878L65.6944 17.755C65.7527 17.1461 65.683 16.5318 65.4899 15.9514L62.8276 16.8371ZM62.9016 17.7574C62.923 17.9773 62.8982 18.1993 62.8287 18.4091L65.4922 19.2914C65.6847 18.7101 65.7536 18.0949 65.6942 17.4854L62.9016 17.7574ZM62.8287 18.4091C62.7592 18.6188 62.6466 18.8117 62.4981 18.9754L64.576 20.8608C64.9875 20.4073 65.2996 19.8727 65.4922 19.2914L62.8287 18.4091ZM62.4981 18.9754C62.3496 19.139 62.1685 19.2698 61.9665 19.3593L63.1028 21.9247C63.6627 21.6767 64.1646 21.3143 64.576 20.8608L62.4981 18.9754ZM61.9665 19.3593C61.7645 19.4488 61.5459 19.495 61.325 19.495V22.3008C61.9373 22.3008 62.5429 22.1727 63.1028 21.9247L61.9665 19.3593ZM61.325 19.495C61.104 19.495 60.8855 19.4488 60.6834 19.3593L59.5471 21.9247C60.107 22.1727 60.7126 22.3008 61.325 22.3008V19.495ZM60.6834 19.3593C60.4814 19.2698 60.3003 19.139 60.1518 18.9754L58.0739 20.8608C58.4854 21.3143 58.9872 21.6767 59.5471 21.9247L60.6834 19.3593ZM60.1518 18.9754C60.0033 18.8117 59.8907 18.6188 59.8212 18.4091L57.1577 19.2914C57.3503 19.8727 57.6624 20.4073 58.0739 20.8608L60.1518 18.9754ZM59.8212 18.4091C59.7517 18.1993 59.7269 17.9773 59.7483 17.7574L56.9557 17.4854C56.8963 18.0949 56.9652 18.7101 57.1577 19.2914L59.8212 18.4091ZM64.4211 17.6214C64.4211 16.7525 64.2289 15.8658 63.6841 15.1651C63.101 14.4151 62.2488 14.0529 61.327 14.0529V16.8587C61.4215 16.8587 61.4575 16.8757 61.4589 16.8763C61.4607 16.8771 61.4601 16.877 61.4593 16.8763C61.4585 16.8757 61.462 16.8782 61.4691 16.8873C61.5005 16.9278 61.6153 17.1239 61.6153 17.6214H64.4211ZM61.327 14.0529C60.4043 14.0529 59.5509 14.4144 58.9678 15.1667C58.4239 15.8683 58.2343 16.7551 58.2343 17.6214H61.0401C61.0401 17.1212 61.1547 16.9253 61.1854 16.8857C61.1921 16.8769 61.1953 16.8748 61.1941 16.8757C61.1929 16.8767 61.1919 16.8771 61.1934 16.8764C61.1944 16.8759 61.2308 16.8587 61.327 16.8587V14.0529ZM58.2343 17.6214C58.2343 18.4909 58.423 19.3802 58.968 20.0829C59.553 20.8372 60.4077 21.1947 61.327 21.1947V18.3889C61.2292 18.3889 61.1923 18.3715 61.1914 18.3711C61.19 18.3704 61.1912 18.371 61.1929 18.3723C61.1944 18.3735 61.1916 18.3717 61.1852 18.3634C61.1557 18.3253 61.0401 18.1294 61.0401 17.6214H58.2343ZM61.327 21.1947C62.2486 21.1947 63.1014 20.8328 63.6847 20.0815C64.2295 19.3799 64.4211 18.492 64.4211 17.6214H61.6153C61.6153 18.1228 61.5 18.3201 61.4685 18.3607C61.4615 18.3698 61.458 18.3723 61.4588 18.3716C61.4598 18.3708 61.4605 18.3706 61.4588 18.3714C61.4576 18.3719 61.4217 18.3889 61.327 18.3889L61.327 21.1947ZM63.0182 16.2185H63.0182V19.0243H63.0182V16.2185Z" fill="#EDEDED" mask="url(#path-14-inside-2_2_41)"/>
<path d="M71.4429 20.0745L71.4174 19.9837H71.4662H71.5647H71.6919L71.6669 20.0745H71.4429ZM69.5098 15.4315H69.4445L69.5141 15.1733H69.6327L69.7022 15.4315H69.6082H69.5098ZM67.4683 20.0745L67.4433 19.9837H67.5875H67.6805H67.7054L67.68 20.0745H67.4683Z" fill="#EDEDED" stroke="#EDEDED" stroke-width="1.40292"/>
<mask id="path-17-inside-3_2_41" fill="white">
<path d="M75.3946 14.4724H76.5922V15.4739H76.6852C76.8429 15.1142 77.1089 14.8127 77.4461 14.6113C77.7833 14.41 78.175 14.3189 78.5664 14.3507C78.8732 14.3277 79.1812 14.3739 79.4676 14.486C79.754 14.5982 80.0116 14.7733 80.2211 14.9985C80.4307 15.2237 80.5869 15.4931 80.6782 15.7869C80.7694 16.0806 80.7935 16.3911 80.7484 16.6954V20.7764H79.5043V17.0079C79.5043 15.9948 79.0641 15.491 78.144 15.491C77.9357 15.4813 77.7278 15.5167 77.5345 15.5949C77.3412 15.673 77.1671 15.7921 77.0242 15.9438C76.8812 16.0955 76.7727 16.2764 76.7062 16.474C76.6396 16.6716 76.6166 16.8812 76.6387 17.0885V20.7765H75.3945L75.3946 14.4724Z"/>
</mask>
<path d="M75.3946 14.4724H76.5922V15.4739H76.6852C76.8429 15.1142 77.1089 14.8127 77.4461 14.6113C77.7833 14.41 78.175 14.3189 78.5664 14.3507C78.8732 14.3277 79.1812 14.3739 79.4676 14.486C79.754 14.5982 80.0116 14.7733 80.2211 14.9985C80.4307 15.2237 80.5869 15.4931 80.6782 15.7869C80.7694 16.0806 80.7935 16.3911 80.7484 16.6954V20.7764H79.5043V17.0079C79.5043 15.9948 79.0641 15.491 78.144 15.491C77.9357 15.4813 77.7278 15.5167 77.5345 15.5949C77.3412 15.673 77.1671 15.7921 77.0242 15.9438C76.8812 16.0955 76.7727 16.2764 76.7062 16.474C76.6396 16.6716 76.6166 16.8812 76.6387 17.0885V20.7765H75.3945L75.3946 14.4724Z" fill="#EDEDED"/>
<path d="M75.3946 14.4724V13.0695H73.9916L73.9916 14.4724L75.3946 14.4724ZM76.5922 14.4724H77.9951V13.0695H76.5922V14.4724ZM76.5922 15.4739H75.1893V16.8768H76.5922V15.4739ZM76.6852 15.4739V16.8768H77.6019L77.97 16.0372L76.6852 15.4739ZM78.5664 14.3507L78.4528 15.749L78.5621 15.7579L78.6716 15.7497L78.5664 14.3507ZM80.7484 16.6954L79.3606 16.4901L79.3455 16.5922V16.6954H80.7484ZM80.7484 20.7764V22.1793H82.1514V20.7764H80.7484ZM79.5043 20.7764H78.1014V22.1793H79.5043V20.7764ZM78.144 15.491L78.0787 16.8924L78.1113 16.8939H78.144V15.491ZM76.6387 17.0885H78.0416V17.0141L78.0337 16.9401L76.6387 17.0885ZM76.6387 20.7765V22.1794H78.0416V20.7765H76.6387ZM75.3945 20.7765L73.9916 20.7765L73.9916 22.1794H75.3945V20.7765ZM75.3946 15.8753H76.5922V13.0695H75.3946V15.8753ZM75.1893 14.4724V15.4739H77.9951V14.4724H75.1893ZM76.5922 16.8768H76.6852V14.0709H76.5922V16.8768ZM77.97 16.0372C78.0105 15.9449 78.0787 15.8676 78.1653 15.8159L76.727 13.4068C76.139 13.7577 75.6753 14.2834 75.4003 14.9105L77.97 16.0372ZM78.1653 15.8159C78.2518 15.7642 78.3523 15.7409 78.4528 15.749L78.6801 12.9524C77.9976 12.8969 77.3149 13.0558 76.727 13.4068L78.1653 15.8159ZM78.6716 15.7497C78.7685 15.7424 78.8657 15.757 78.9562 15.7924L79.979 13.1797C79.4966 12.9908 78.9779 12.9129 78.4612 12.9517L78.6716 15.7497ZM78.9562 15.7924C79.0466 15.8278 79.1279 15.8831 79.1941 15.9542L81.2481 14.0428C80.8952 13.6635 80.4614 13.3685 79.979 13.1797L78.9562 15.7924ZM79.1941 15.9542C79.2603 16.0254 79.3096 16.1104 79.3384 16.2032L82.0179 15.3706C81.8641 14.8758 81.6011 14.422 81.2481 14.0428L79.1941 15.9542ZM79.3384 16.2032C79.3673 16.2959 79.3748 16.394 79.3606 16.4901L82.1362 16.9008C82.2121 16.3883 82.1716 15.8653 82.0179 15.3706L79.3384 16.2032ZM79.3455 16.6954V20.7764H82.1514V16.6954H79.3455ZM80.7484 19.3735H79.5043V22.1793H80.7484V19.3735ZM80.9072 20.7764V17.0079H78.1014V20.7764H80.9072ZM80.9072 17.0079C80.9072 16.3305 80.7644 15.5509 80.2166 14.9362C79.6403 14.2894 78.8554 14.088 78.144 14.088V16.8939C78.25 16.8939 78.2784 16.9089 78.2584 16.9015C78.2472 16.8973 78.2255 16.8878 78.1985 16.8697C78.1711 16.8514 78.1447 16.8286 78.1218 16.8028C78.0738 16.749 78.0676 16.7132 78.075 16.7384C78.0838 16.7686 78.1014 16.8513 78.1014 17.0079H80.9072ZM78.2092 14.0896C77.7989 14.0704 77.3894 14.1403 77.0086 14.2943L78.0605 16.8955C78.0662 16.8931 78.0725 16.8921 78.0787 16.8924L78.2092 14.0896ZM77.0086 14.2943C76.6278 14.4483 76.2848 14.6828 76.0031 14.9817L78.0452 16.9059C78.0495 16.9013 78.0547 16.8978 78.0605 16.8955L77.0086 14.2943ZM76.0031 14.9817C75.7214 15.2806 75.5077 15.637 75.3766 16.0262L78.0357 16.9217C78.0377 16.9158 78.041 16.9104 78.0452 16.9059L76.0031 14.9817ZM75.3766 16.0262C75.2455 16.4155 75.2002 16.8285 75.2436 17.2369L78.0337 16.9401C78.0331 16.9339 78.0338 16.9276 78.0357 16.9217L75.3766 16.0262ZM75.2358 17.0885V20.7765H78.0416V17.0885H75.2358ZM76.6387 19.3736H75.3945V22.1794H76.6387V19.3736ZM76.7975 20.7765L76.7975 14.4724L73.9916 14.4724L73.9916 20.7765L76.7975 20.7765Z" fill="#EDEDED" mask="url(#path-17-inside-3_2_41)"/>
<mask id="path-19-inside-4_2_41" fill="white">
<path d="M82.7307 12.0109H83.9748V20.7759H82.7307V12.0109Z"/>
</mask>
<path d="M82.7307 12.0109H83.9748V20.7759H82.7307V12.0109Z" fill="#EDEDED"/>
<path d="M82.7307 12.0109V10.608H81.3278V12.0109H82.7307ZM83.9748 12.0109H85.3777V10.608H83.9748V12.0109ZM83.9748 20.7759V22.1788H85.3777V20.7759H83.9748ZM82.7307 20.7759H81.3278V22.1788H82.7307V20.7759ZM82.7307 13.4138H83.9748V10.608H82.7307V13.4138ZM82.5719 12.0109V20.7759H85.3777V12.0109H82.5719ZM83.9748 19.373H82.7307V22.1788H83.9748V19.373ZM84.1336 20.7759V12.0109H81.3278V20.7759H84.1336Z" fill="#EDEDED" mask="url(#path-19-inside-4_2_41)"/>
<mask id="path-21-inside-5_2_41" fill="white">
<path d="M85.7029 17.6215C85.6633 17.2072 85.7107 16.7892 85.8421 16.3943C85.9735 15.9994 86.186 15.6363 86.466 15.3283C86.7459 15.0203 87.0871 14.7743 87.4678 14.6059C87.8484 14.4375 88.26 14.3505 88.6762 14.3505C89.0924 14.3505 89.504 14.4375 89.8846 14.6059C90.2652 14.7743 90.6064 15.0203 90.8864 15.3283C91.1663 15.6363 91.3788 15.9994 91.5102 16.3943C91.6416 16.7892 91.6891 17.2072 91.6495 17.6215C91.6898 18.0363 91.6429 18.4548 91.5119 18.8504C91.3808 19.2459 91.1684 19.6096 90.8884 19.9182C90.6084 20.2268 90.2669 20.4734 89.8859 20.6421C89.5049 20.8108 89.0929 20.898 88.6762 20.898C88.2595 20.898 87.8474 20.8108 87.4664 20.6421C87.0855 20.4734 86.744 20.2268 86.464 19.9182C86.1839 19.6096 85.9716 19.2459 85.8405 18.8504C85.7094 18.4548 85.6626 18.0363 85.7029 17.6215ZM90.3691 17.6215C90.3691 16.255 89.7552 15.4559 88.6779 15.4559C87.5965 15.4559 86.9881 16.255 86.9881 17.6215C86.9881 18.999 87.5965 19.7919 88.6779 19.7919C89.7552 19.7919 90.3691 18.9935 90.3691 17.6215H90.3691Z"/>
</mask>
<path d="M85.7029 17.6215C85.6633 17.2072 85.7107 16.7892 85.8421 16.3943C85.9735 15.9994 86.186 15.6363 86.466 15.3283C86.7459 15.0203 87.0871 14.7743 87.4678 14.6059C87.8484 14.4375 88.26 14.3505 88.6762 14.3505C89.0924 14.3505 89.504 14.4375 89.8846 14.6059C90.2652 14.7743 90.6064 15.0203 90.8864 15.3283C91.1663 15.6363 91.3788 15.9994 91.5102 16.3943C91.6416 16.7892 91.6891 17.2072 91.6495 17.6215C91.6898 18.0363 91.6429 18.4548 91.5119 18.8504C91.3808 19.2459 91.1684 19.6096 90.8884 19.9182C90.6084 20.2268 90.2669 20.4734 89.8859 20.6421C89.5049 20.8108 89.0929 20.898 88.6762 20.898C88.2595 20.898 87.8474 20.8108 87.4664 20.6421C87.0855 20.4734 86.744 20.2268 86.464 19.9182C86.1839 19.6096 85.9716 19.2459 85.8405 18.8504C85.7094 18.4548 85.6626 18.0363 85.7029 17.6215ZM90.3691 17.6215C90.3691 16.255 89.7552 15.4559 88.6779 15.4559C87.5965 15.4559 86.9881 16.255 86.9881 17.6215C86.9881 18.999 87.5965 19.7919 88.6779 19.7919C89.7552 19.7919 90.3691 18.9935 90.3691 17.6215H90.3691Z" fill="#EDEDED"/>
<path d="M91.6495 17.6215L90.2529 17.488L90.24 17.6227L90.2531 17.7573L91.6495 17.6215ZM88.6762 20.898V19.4951V20.898ZM90.3691 17.6215H88.9662V19.0244H90.3691V17.6215ZM88.6779 19.7919V21.1949H88.6779L88.6779 19.7919ZM90.3691 17.6215H91.772V16.2186H90.3691V17.6215ZM87.0995 17.488C87.0785 17.2683 87.1036 17.0467 87.1733 16.8372L84.511 15.9513C84.3178 16.5317 84.2481 17.1461 84.3063 17.755L87.0995 17.488ZM87.1733 16.8372C87.243 16.6278 87.3557 16.4353 87.5041 16.2719L85.4278 14.3847C85.0164 14.8373 84.7041 15.3709 84.511 15.9513L87.1733 16.8372ZM87.5041 16.2719C87.6526 16.1086 87.8335 15.9781 88.0354 15.8888L86.9002 13.3229C86.3408 13.5704 85.8393 13.932 85.4278 14.3847L87.5041 16.2719ZM88.0354 15.8888C88.2372 15.7995 88.4555 15.7534 88.6762 15.7534V12.9476C88.0645 12.9476 87.4596 13.0754 86.9002 13.3229L88.0354 15.8888ZM88.6762 15.7534C88.8969 15.7534 89.1152 15.7995 89.317 15.8888L90.4522 13.3229C89.8928 13.0754 89.2879 12.9476 88.6762 12.9476V15.7534ZM89.317 15.8888C89.5189 15.9781 89.6998 16.1086 89.8483 16.2719L91.9245 14.3847C91.5131 13.932 91.0116 13.5704 90.4522 13.3229L89.317 15.8888ZM89.8483 16.2719C89.9967 16.4353 90.1094 16.6278 90.1791 16.8372L92.8414 15.9513C92.6483 15.371 92.336 14.8373 91.9245 14.3847L89.8483 16.2719ZM90.1791 16.8372C90.2488 17.0467 90.2739 17.2683 90.2529 17.488L93.046 17.755C93.1042 17.1461 93.0345 16.5317 92.8414 15.9513L90.1791 16.8372ZM90.2531 17.7573C90.2745 17.9773 90.2497 18.1993 90.1802 18.4091L92.8436 19.2917C93.0362 18.7104 93.1051 18.0952 93.0458 17.4857L90.2531 17.7573ZM90.1802 18.4091C90.1106 18.6188 89.998 18.8118 89.8495 18.9754L91.9273 20.861C92.3388 20.4075 92.6509 19.873 92.8436 19.2917L90.1802 18.4091ZM89.8495 18.9754C89.701 19.1391 89.5199 19.2699 89.3178 19.3594L90.4541 21.9248C91.014 21.6768 91.5158 21.3145 91.9273 20.861L89.8495 18.9754ZM89.3178 19.3594C89.1157 19.4489 88.8972 19.4951 88.6762 19.4951V22.3009C89.2886 22.3009 89.8941 22.1728 90.4541 21.9248L89.3178 19.3594ZM88.6762 19.4951C88.4552 19.4951 88.2366 19.4488 88.0346 19.3594L86.8983 21.9248C87.4582 22.1728 88.0638 22.3009 88.6762 22.3009V19.4951ZM88.0346 19.3594C87.8325 19.2699 87.6514 19.1391 87.5029 18.9754L85.425 20.861C85.8366 21.3145 86.3384 21.6768 86.8983 21.9248L88.0346 19.3594ZM87.5029 18.9754C87.3544 18.8118 87.2417 18.6188 87.1722 18.4091L84.5088 19.2917C84.7014 19.8729 85.0135 20.4075 85.425 20.861L87.5029 18.9754ZM87.1722 18.4091C87.1027 18.1993 87.0778 17.9773 87.0992 17.7573L84.3066 17.4857C84.2473 18.0952 84.3162 18.7104 84.5088 19.2917L87.1722 18.4091ZM91.772 17.6215C91.772 16.7526 91.5798 15.8659 91.035 15.1652C90.4519 14.4152 89.5997 14.053 88.6779 14.053V16.8588C88.7724 16.8588 88.8084 16.8758 88.8098 16.8764C88.8116 16.8773 88.811 16.8771 88.8101 16.8764C88.8094 16.8758 88.8129 16.8783 88.8199 16.8874C88.8514 16.9279 88.9662 17.124 88.9662 17.6215H91.772ZM88.6779 14.053C87.7552 14.053 86.9018 14.4145 86.3187 15.1668C85.7748 15.8684 85.5852 16.7553 85.5852 17.6215H88.391C88.391 17.1213 88.5056 16.9254 88.5363 16.8858C88.543 16.8771 88.5462 16.8749 88.545 16.8758C88.5437 16.8768 88.5428 16.8772 88.5443 16.8765C88.5452 16.8761 88.5816 16.8588 88.6779 16.8588V14.053ZM85.5852 17.6215C85.5852 18.491 85.7739 19.3803 86.3189 20.083C86.9039 20.8373 87.7586 21.1949 88.6779 21.1949V18.389C88.5801 18.389 88.5432 18.3716 88.5423 18.3712C88.5408 18.3706 88.5421 18.3711 88.5438 18.3724C88.5453 18.3736 88.5425 18.3718 88.5361 18.3635C88.5065 18.3255 88.391 18.1295 88.391 17.6215H85.5852ZM88.6779 21.1949C89.5995 21.1949 90.4522 20.833 91.0356 20.0816C91.5803 19.38 91.772 18.4921 91.772 17.6215H88.9662C88.9662 18.1229 88.8509 18.3202 88.8194 18.3608C88.8123 18.3699 88.8089 18.3724 88.8097 18.3717C88.8107 18.3709 88.8114 18.3707 88.8097 18.3715C88.8085 18.3721 88.7725 18.389 88.6779 18.389L88.6779 21.1949ZM90.3691 16.2186H90.3691V19.0244H90.3691V16.2186Z" fill="#EDEDED" mask="url(#path-21-inside-5_2_41)"/>
<mask id="path-23-inside-6_2_41" fill="white">
<path d="M92.9612 18.9934C92.9612 17.8587 93.8061 17.2045 95.3059 17.1115L97.0135 17.0131V16.4689C97.0135 15.8031 96.5733 15.4271 95.7229 15.4271C95.0284 15.4271 94.5471 15.6821 94.409 16.1278H93.2045C93.3317 15.045 94.3502 14.3505 95.7803 14.3505C97.3608 14.3505 98.2522 15.1373 98.2522 16.4689V20.7762H97.0545V19.8903H96.9561C96.7563 20.2081 96.4757 20.4672 96.1431 20.6411C95.8104 20.815 95.4375 20.8975 95.0625 20.8801C94.7979 20.9076 94.5304 20.8794 94.2774 20.7972C94.0243 20.7151 93.7913 20.5808 93.5933 20.403C93.3953 20.2252 93.2368 20.008 93.1279 19.7652C93.019 19.5224 92.9622 19.2595 92.9612 18.9934ZM97.0135 18.4548V17.9277L95.4741 18.0262C94.6059 18.0843 94.2121 18.3796 94.2121 18.9353C94.2121 19.5027 94.7043 19.8329 95.3811 19.8329C95.5794 19.853 95.7798 19.8329 95.9702 19.774C96.1606 19.7151 96.3372 19.6184 96.4895 19.4899C96.6418 19.3613 96.7667 19.2034 96.8567 19.0256C96.9467 18.8477 97 18.6536 97.0135 18.4548Z"/>
</mask>
<path d="M92.9612 18.9934C92.9612 17.8587 93.8061 17.2045 95.3059 17.1115L97.0135 17.0131V16.4689C97.0135 15.8031 96.5733 15.4271 95.7229 15.4271C95.0284 15.4271 94.5471 15.6821 94.409 16.1278H93.2045C93.3317 15.045 94.3502 14.3505 95.7803 14.3505C97.3608 14.3505 98.2522 15.1373 98.2522 16.4689V20.7762H97.0545V19.8903H96.9561C96.7563 20.2081 96.4757 20.4672 96.1431 20.6411C95.8104 20.815 95.4375 20.8975 95.0625 20.8801C94.7979 20.9076 94.5304 20.8794 94.2774 20.7972C94.0243 20.7151 93.7913 20.5808 93.5933 20.403C93.3953 20.2252 93.2368 20.008 93.1279 19.7652C93.019 19.5224 92.9622 19.2595 92.9612 18.9934ZM97.0135 18.4548V17.9277L95.4741 18.0262C94.6059 18.0843 94.2121 18.3796 94.2121 18.9353C94.2121 19.5027 94.7043 19.8329 95.3811 19.8329C95.5794 19.853 95.7798 19.8329 95.9702 19.774C96.1606 19.7151 96.3372 19.6184 96.4895 19.4899C96.6418 19.3613 96.7667 19.2034 96.8567 19.0256C96.9467 18.8477 97 18.6536 97.0135 18.4548Z" fill="#EDEDED"/>
<path d="M95.3059 17.1115L95.2252 15.7109L95.2191 15.7113L95.3059 17.1115ZM97.0135 17.0131L97.0942 18.4137L98.4164 18.3375V17.0131H97.0135ZM94.409 16.1278V17.5308H95.4431L95.7491 16.543L94.409 16.1278ZM93.2045 16.1278L91.8112 15.9642L91.6272 17.5308H93.2045V16.1278ZM98.2522 20.7762V22.1792H99.6551V20.7762H98.2522ZM97.0545 20.7762H95.6516V22.1792H97.0545V20.7762ZM97.0545 19.8903H98.4574V18.4874H97.0545V19.8903ZM96.9561 19.8903V18.4874H96.181L95.7684 19.1436L96.9561 19.8903ZM95.0625 20.8801L95.1273 19.4787L95.0221 19.4738L94.9174 19.4847L95.0625 20.8801ZM97.0135 17.9277H98.4164V16.4322L96.924 16.5277L97.0135 17.9277ZM95.4741 18.0262L95.3845 16.6261L95.3804 16.6264L95.4741 18.0262ZM95.3811 19.8329L95.5224 18.4371L95.452 18.43H95.3811V19.8329ZM94.3641 18.9934C94.3641 18.886 94.3834 18.8369 94.3904 18.8217C94.3962 18.8091 94.4069 18.7896 94.4442 18.7599C94.5355 18.6873 94.8027 18.5483 95.3927 18.5117L95.2191 15.7113C94.3093 15.7677 93.4041 16.0023 92.698 16.5637C91.9373 17.1685 91.5583 18.0344 91.5583 18.9934H94.3641ZM95.3866 18.5121L97.0942 18.4137L96.9328 15.6125L95.2252 15.7109L95.3866 18.5121ZM98.4164 17.0131V16.4689H95.6106V17.0131H98.4164ZM98.4164 16.4689C98.4164 15.8058 98.1817 15.1091 97.5761 14.6131C97.0162 14.1545 96.3276 14.0242 95.7229 14.0242V16.8301C95.8357 16.8301 95.8897 16.8429 95.9003 16.8459C95.9084 16.8482 95.8626 16.8365 95.7981 16.7837C95.729 16.727 95.673 16.6512 95.6395 16.5722C95.6086 16.4991 95.6106 16.4562 95.6106 16.4689H98.4164ZM95.7229 14.0242C94.785 14.0242 93.4791 14.3888 93.069 15.7126L95.7491 16.543C95.7252 16.6202 95.6843 16.6926 95.633 16.7516C95.5833 16.8086 95.5377 16.8375 95.5166 16.8487C95.4968 16.8593 95.4996 16.8539 95.5362 16.8461C95.5726 16.8384 95.6337 16.8301 95.7229 16.8301V14.0242ZM94.409 14.7249H93.2045V17.5308H94.409V14.7249ZM94.5979 16.2914C94.6107 16.1826 94.656 16.0873 94.7988 15.9891C94.9636 15.8757 95.2809 15.7534 95.7803 15.7534V12.9476C93.9714 12.9476 92.055 13.8876 91.8112 15.9642L94.5979 16.2914ZM95.7803 15.7534C96.3547 15.7534 96.6049 15.8969 96.6918 15.972C96.7499 16.0222 96.8493 16.1338 96.8493 16.4689H99.6551C99.6551 15.4724 99.3087 14.5248 98.526 13.8487C97.7722 13.1975 96.7864 12.9476 95.7803 12.9476V15.7534ZM96.8493 16.4689V20.7762H99.6551V16.4689H96.8493ZM98.2522 19.3733H97.0545V22.1792H98.2522V19.3733ZM98.4574 20.7762V19.8903H95.6516V20.7762H98.4574ZM97.0545 18.4874H96.9561V21.2932H97.0545V18.4874ZM95.7684 19.1436C95.7008 19.2512 95.6058 19.3389 95.4932 19.3978L96.793 21.8844C97.3457 21.5955 97.8118 21.165 98.1438 20.637L95.7684 19.1436ZM95.4932 19.3978C95.3805 19.4566 95.2543 19.4846 95.1273 19.4787L94.9977 22.2815C95.6208 22.3103 96.2402 22.1733 96.793 21.8844L95.4932 19.3978ZM94.9174 19.4847C94.8477 19.492 94.7773 19.4845 94.7106 19.4629L93.8441 22.1316C94.2836 22.2743 94.7481 22.3233 95.2077 22.2755L94.9174 19.4847ZM94.7106 19.4629C94.644 19.4413 94.5827 19.4059 94.5305 19.3591L92.656 21.4469C92.9998 21.7556 93.4046 21.9888 93.8441 22.1316L94.7106 19.4629ZM94.5305 19.3591C94.4784 19.3123 94.4367 19.2551 94.408 19.1912L91.8478 20.3392C92.0368 20.7609 92.3122 21.1382 92.656 21.4469L94.5305 19.3591ZM94.408 19.1912C94.3793 19.1272 94.3644 19.058 94.3641 18.9879L91.5583 18.9989C91.5601 19.461 91.6587 19.9176 91.8478 20.3392L94.408 19.1912ZM98.4164 18.4548V17.9277H95.6106V18.4548H98.4164ZM96.924 16.5277L95.3845 16.6261L95.5636 19.4262L97.103 19.3278L96.924 16.5277ZM95.3804 16.6264C94.8462 16.6621 94.2155 16.779 93.6922 17.1596C93.0742 17.6092 92.8092 18.2717 92.8092 18.9353H95.6151C95.6151 18.9626 95.6097 19.052 95.5555 19.1667C95.4984 19.2875 95.4156 19.3756 95.3429 19.4286C95.2791 19.475 95.247 19.4773 95.2891 19.4655C95.3308 19.4538 95.4182 19.436 95.5677 19.4259L95.3804 16.6264ZM92.8092 18.9353C92.8092 19.6769 93.1539 20.3148 93.709 20.7251C94.2225 21.1046 94.834 21.2358 95.3811 21.2358V18.43C95.2514 18.43 95.2785 18.3961 95.3767 18.4686C95.4316 18.5092 95.4979 18.5771 95.5483 18.6754C95.5993 18.775 95.6151 18.8692 95.6151 18.9353H92.8092ZM95.2398 21.2287C95.6254 21.2677 96.0148 21.2288 96.3849 21.1142L95.5554 18.4338C95.5447 18.4371 95.5335 18.4382 95.5224 18.4371L95.2398 21.2287ZM96.3849 21.1142C96.7551 20.9997 97.0984 20.8118 97.3945 20.5619L95.5845 18.4179C95.5759 18.4251 95.5661 18.4305 95.5554 18.4338L96.3849 21.1142ZM97.3945 20.5619C97.6905 20.3119 97.9333 20.0049 98.1083 19.6592L95.605 18.3919C95.6 18.4018 95.593 18.4107 95.5845 18.4179L97.3945 20.5619ZM98.1083 19.6592C98.2834 19.3135 98.387 18.9362 98.4132 18.5496L95.6138 18.36C95.613 18.3711 95.6101 18.3819 95.605 18.3919L98.1083 19.6592Z" fill="#EDEDED" mask="url(#path-23-inside-6_2_41)"/>
<path d="M105.073 16.4289C105.044 16.342 105.011 16.2571 104.974 16.1747H105.073V16.4289ZM104.976 19.0784C105.012 18.9976 105.044 18.9145 105.073 18.8293V19.0784H104.976Z" fill="#EDEDED" stroke="#EDEDED" stroke-width="1.40292"/>
<mask id="path-26-inside-7_2_41" fill="white">
<path d="M110.921 17.6214C110.881 17.2071 110.929 16.7891 111.06 16.3942C111.191 15.9993 111.404 15.6363 111.684 15.3283C111.964 15.0203 112.305 14.7742 112.685 14.6059C113.066 14.4375 113.478 14.3505 113.894 14.3505C114.31 14.3505 114.722 14.4375 115.102 14.6059C115.483 14.7742 115.824 15.0203 116.104 15.3283C116.384 15.6363 116.596 15.9993 116.728 16.3942C116.859 16.7891 116.906 17.2071 116.867 17.6214C116.907 18.0361 116.86 18.4547 116.729 18.8502C116.598 19.2458 116.386 19.6095 116.106 19.9181C115.826 20.2267 115.484 20.4733 115.104 20.642C114.723 20.8107 114.31 20.8979 113.894 20.8979C113.477 20.8979 113.065 20.8107 112.684 20.642C112.303 20.4733 111.962 20.2267 111.682 19.9181C111.402 19.6095 111.189 19.2458 111.058 18.8502C110.927 18.4547 110.88 18.0361 110.921 17.6214ZM115.587 17.6214C115.587 16.2549 114.973 15.4558 113.896 15.4558C112.814 15.4558 112.206 16.2549 112.206 17.6214C112.206 18.9989 112.814 19.7918 113.896 19.7918C114.973 19.7918 115.587 18.9934 115.587 17.6214Z"/>
</mask>
<path d="M110.921 17.6214C110.881 17.2071 110.929 16.7891 111.06 16.3942C111.191 15.9993 111.404 15.6363 111.684 15.3283C111.964 15.0203 112.305 14.7742 112.685 14.6059C113.066 14.4375 113.478 14.3505 113.894 14.3505C114.31 14.3505 114.722 14.4375 115.102 14.6059C115.483 14.7742 115.824 15.0203 116.104 15.3283C116.384 15.6363 116.596 15.9993 116.728 16.3942C116.859 16.7891 116.906 17.2071 116.867 17.6214C116.907 18.0361 116.86 18.4547 116.729 18.8502C116.598 19.2458 116.386 19.6095 116.106 19.9181C115.826 20.2267 115.484 20.4733 115.104 20.642C114.723 20.8107 114.31 20.8979 113.894 20.8979C113.477 20.8979 113.065 20.8107 112.684 20.642C112.303 20.4733 111.962 20.2267 111.682 19.9181C111.402 19.6095 111.189 19.2458 111.058 18.8502C110.927 18.4547 110.88 18.0361 110.921 17.6214ZM115.587 17.6214C115.587 16.2549 114.973 15.4558 113.896 15.4558C112.814 15.4558 112.206 16.2549 112.206 17.6214C112.206 18.9989 112.814 19.7918 113.896 19.7918C114.973 19.7918 115.587 18.9934 115.587 17.6214Z" fill="#EDEDED"/>
<path d="M113.894 14.3505V12.9476V14.3505ZM116.867 17.6214L115.47 17.4878L115.457 17.6226L115.47 17.7574L116.867 17.6214ZM113.896 19.7918V21.1947H113.896L113.896 19.7918ZM112.317 17.4878C112.296 17.2681 112.322 17.0465 112.391 16.8371L109.729 15.9514C109.536 16.5318 109.466 17.1461 109.524 17.755L112.317 17.4878ZM112.391 16.8371C112.461 16.6277 112.573 16.4352 112.722 16.2719L110.646 14.3847C110.234 14.8373 109.922 15.371 109.729 15.9514L112.391 16.8371ZM112.722 16.2719C112.87 16.1086 113.051 15.9781 113.253 15.8888L112.118 13.3229C111.558 13.5704 111.057 13.9321 110.646 14.3847L112.722 16.2719ZM113.253 15.8888C113.455 15.7995 113.673 15.7534 113.894 15.7534V12.9476C113.282 12.9476 112.677 13.0754 112.118 13.3229L113.253 15.8888ZM113.894 15.7534C114.114 15.7534 114.333 15.7995 114.535 15.8888L115.67 13.3229C115.11 13.0754 114.505 12.9476 113.894 12.9476V15.7534ZM114.535 15.8888C114.736 15.9781 114.917 16.1086 115.066 16.2719L117.142 14.3847C116.731 13.9321 116.229 13.5704 115.67 13.3229L114.535 15.8888ZM115.066 16.2719C115.214 16.4352 115.327 16.6277 115.396 16.8371L118.059 15.9514C117.866 15.371 117.553 14.8373 117.142 14.3847L115.066 16.2719ZM115.396 16.8371C115.466 17.0465 115.491 17.2682 115.47 17.4878L118.263 17.755C118.322 17.1461 118.252 16.5318 118.059 15.9514L115.396 16.8371ZM115.47 17.7574C115.492 17.9773 115.467 18.1993 115.398 18.4091L118.061 19.2914C118.254 18.7101 118.322 18.0949 118.263 17.4854L115.47 17.7574ZM115.398 18.4091C115.328 18.6188 115.215 18.8117 115.067 18.9754L117.145 20.8608C117.556 20.4073 117.868 19.8727 118.061 19.2914L115.398 18.4091ZM115.067 18.9754C114.918 19.139 114.737 19.2698 114.535 19.3593L115.672 21.9247C116.232 21.6767 116.733 21.3143 117.145 20.8608L115.067 18.9754ZM114.535 19.3593C114.333 19.4488 114.115 19.495 113.894 19.495V22.3008C114.506 22.3008 115.112 22.1727 115.672 21.9247L114.535 19.3593ZM113.894 19.495C113.673 19.495 113.454 19.4488 113.252 19.3593L112.116 21.9247C112.676 22.1727 113.281 22.3008 113.894 22.3008V19.495ZM113.252 19.3593C113.05 19.2698 112.869 19.139 112.721 18.9754L110.643 20.8608C111.054 21.3143 111.556 21.6767 112.116 21.9247L113.252 19.3593ZM112.721 18.9754C112.572 18.8117 112.46 18.6188 112.39 18.4091L109.727 19.2914C109.919 19.8727 110.231 20.4073 110.643 20.8608L112.721 18.9754ZM112.39 18.4091C112.321 18.1993 112.296 17.9773 112.317 17.7574L109.525 17.4854C109.465 18.0949 109.534 18.7101 109.727 19.2914L112.39 18.4091ZM116.99 17.6214C116.99 16.7525 116.798 15.8658 116.253 15.1651C115.67 14.4151 114.818 14.0529 113.896 14.0529V16.8587C113.99 16.8587 114.026 16.8757 114.028 16.8763C114.03 16.8771 114.029 16.877 114.028 16.8763C114.027 16.8757 114.031 16.8782 114.038 16.8873C114.069 16.9278 114.184 17.1239 114.184 17.6214H116.99ZM113.896 14.0529C112.973 14.0529 112.12 14.4144 111.537 15.1667C110.993 15.8683 110.803 16.7551 110.803 17.6214H113.609C113.609 17.1212 113.724 16.9253 113.754 16.8857C113.761 16.8769 113.764 16.8748 113.763 16.8757C113.762 16.8767 113.761 16.8771 113.762 16.8764C113.763 16.8759 113.8 16.8587 113.896 16.8587V14.0529ZM110.803 17.6214C110.803 18.4909 110.992 19.3802 111.537 20.0829C112.122 20.8372 112.977 21.1947 113.896 21.1947V18.3889C113.798 18.3889 113.761 18.3715 113.76 18.3711C113.759 18.3704 113.76 18.371 113.762 18.3723C113.763 18.3735 113.76 18.3717 113.754 18.3634C113.725 18.3253 113.609 18.1294 113.609 17.6214H110.803ZM113.896 21.1947C114.817 21.1947 115.67 20.8328 116.254 20.0815C116.798 19.3799 116.99 18.492 116.99 17.6214H114.184C114.184 18.1228 114.069 18.3201 114.037 18.3607C114.03 18.3698 114.027 18.3723 114.028 18.3716C114.029 18.3708 114.029 18.3706 114.028 18.3714C114.026 18.3719 113.99 18.3889 113.896 18.3889L113.896 21.1947Z" fill="#EDEDED" mask="url(#path-26-inside-7_2_41)"/>
<mask id="path-28-inside-8_2_41" fill="white">
<path d="M118.537 14.4724H119.735V15.4739H119.827C119.985 15.1142 120.251 14.8127 120.588 14.6113C120.926 14.41 121.317 14.3189 121.709 14.3507C122.015 14.3277 122.323 14.3739 122.61 14.486C122.896 14.5982 123.154 14.7733 123.363 14.9985C123.573 15.2237 123.729 15.4931 123.82 15.7869C123.912 16.0806 123.936 16.3911 123.891 16.6954V20.7764H122.647V17.0079C122.647 15.9948 122.206 15.491 121.286 15.491C121.078 15.4813 120.87 15.5167 120.677 15.5949C120.484 15.673 120.309 15.7921 120.166 15.9438C120.024 16.0955 119.915 16.2764 119.849 16.474C119.782 16.6716 119.759 16.8812 119.781 17.0885V20.7765H118.537V14.4724Z"/>
</mask>
<path d="M118.537 14.4724H119.735V15.4739H119.827C119.985 15.1142 120.251 14.8127 120.588 14.6113C120.926 14.41 121.317 14.3189 121.709 14.3507C122.015 14.3277 122.323 14.3739 122.61 14.486C122.896 14.5982 123.154 14.7733 123.363 14.9985C123.573 15.2237 123.729 15.4931 123.82 15.7869C123.912 16.0806 123.936 16.3911 123.891 16.6954V20.7764H122.647V17.0079C122.647 15.9948 122.206 15.491 121.286 15.491C121.078 15.4813 120.87 15.5167 120.677 15.5949C120.484 15.673 120.309 15.7921 120.166 15.9438C120.024 16.0955 119.915 16.2764 119.849 16.474C119.782 16.6716 119.759 16.8812 119.781 17.0885V20.7765H118.537V14.4724Z" fill="#EDEDED"/>
<path d="M118.537 14.4724V13.0695H117.134V14.4724H118.537ZM119.735 14.4724H121.137V13.0695H119.735V14.4724ZM119.735 15.4739H118.332V16.8768H119.735V15.4739ZM119.827 15.4739V16.8768H120.744L121.112 16.0372L119.827 15.4739ZM121.709 14.3507L121.595 15.749L121.704 15.7579L121.814 15.7497L121.709 14.3507ZM123.891 16.6954L122.503 16.4901L122.488 16.5922V16.6954H123.891ZM123.891 20.7764V22.1793H125.294V20.7764H123.891ZM122.647 20.7764H121.244V22.1793H122.647V20.7764ZM121.286 15.491L121.221 16.8924L121.254 16.8939H121.286V15.491ZM119.781 17.0885H121.184V17.0141L121.176 16.9401L119.781 17.0885ZM119.781 20.7765V22.1794H121.184V20.7765H119.781ZM118.537 20.7765H117.134V22.1794H118.537V20.7765ZM118.537 15.8753H119.735V13.0695H118.537V15.8753ZM118.332 14.4724V15.4739H121.137V14.4724H118.332ZM119.735 16.8768H119.827V14.0709H119.735V16.8768ZM121.112 16.0372C121.153 15.9449 121.221 15.8676 121.308 15.8159L119.869 13.4068C119.281 13.7578 118.818 14.2834 118.543 14.9105L121.112 16.0372ZM121.308 15.8159C121.394 15.7642 121.495 15.7409 121.595 15.749L121.822 12.9524C121.14 12.8969 120.457 13.0558 119.869 13.4068L121.308 15.8159ZM121.814 15.7497C121.911 15.7424 122.008 15.757 122.098 15.7924L123.121 13.1797C122.639 12.9908 122.12 12.9129 121.604 12.9517L121.814 15.7497ZM122.098 15.7924C122.189 15.8278 122.27 15.8831 122.336 15.9542L124.39 14.0428C124.037 13.6635 123.604 13.3685 123.121 13.1797L122.098 15.7924ZM122.336 15.9542C122.403 16.0254 122.452 16.1104 122.481 16.2032L125.16 15.3706C125.006 14.8758 124.743 14.422 124.39 14.0428L122.336 15.9542ZM122.481 16.2032C122.51 16.2959 122.517 16.394 122.503 16.4901L125.279 16.9008C125.354 16.3883 125.314 15.8653 125.16 15.3706L122.481 16.2032ZM122.488 16.6954V20.7764H125.294V16.6954H122.488ZM123.891 19.3735H122.647V22.1793H123.891V19.3735ZM124.05 20.7764V17.0079H121.244V20.7764H124.05ZM124.05 17.0079C124.05 16.3305 123.907 15.5509 123.359 14.9362C122.783 14.2894 121.998 14.088 121.286 14.088V16.8939C121.392 16.8939 121.421 16.9089 121.401 16.9015C121.389 16.8973 121.368 16.8878 121.341 16.8697C121.313 16.8514 121.287 16.8286 121.264 16.8028C121.216 16.749 121.21 16.7132 121.217 16.7384C121.226 16.7686 121.244 16.8513 121.244 17.0079H124.05ZM121.352 14.0896C120.941 14.0704 120.532 14.1403 120.151 14.2943L121.203 16.8955C121.209 16.8931 121.215 16.8921 121.221 16.8924L121.352 14.0896ZM120.151 14.2943C119.77 14.4483 119.427 14.6828 119.145 14.9817L121.188 16.9059C121.192 16.9013 121.197 16.8978 121.203 16.8955L120.151 14.2943ZM119.145 14.9817C118.864 15.2806 118.65 15.637 118.519 16.0262L121.178 16.9217C121.18 16.9158 121.183 16.9104 121.188 16.9059L119.145 14.9817ZM118.519 16.0262C118.388 16.4155 118.343 16.8285 118.386 17.2369L121.176 16.9401C121.175 16.9339 121.176 16.9276 121.178 16.9217L118.519 16.0262ZM118.378 17.0885V20.7765H121.184V17.0885H118.378ZM119.781 19.3736H118.537V22.1794H119.781V19.3736ZM119.94 20.7765V14.4724H117.134V20.7765H119.94Z" fill="#EDEDED" mask="url(#path-28-inside-8_2_41)"/>
<mask id="path-30-inside-9_2_41" fill="white">
<path d="M130.92 12.9018V14.5001H132.285V15.548H130.92V18.7896C130.92 19.45 131.192 19.7391 131.811 19.7391C131.97 19.7386 132.128 19.729 132.285 19.7104V20.7467C132.062 20.7867 131.836 20.8079 131.609 20.8103C130.225 20.8103 129.674 20.3236 129.674 19.1081V15.548H128.673V14.5H129.674V12.9018H130.92Z"/>
</mask>
<path d="M130.92 12.9018V14.5001H132.285V15.548H130.92V18.7896C130.92 19.45 131.192 19.7391 131.811 19.7391C131.97 19.7386 132.128 19.729 132.285 19.7104V20.7467C132.062 20.7867 131.836 20.8079 131.609 20.8103C130.225 20.8103 129.674 20.3236 129.674 19.1081V15.548H128.673V14.5H129.674V12.9018H130.92Z" fill="#EDEDED"/>
<path d="M130.92 12.9018H132.323V11.4989H130.92V12.9018ZM130.92 14.5001H129.517V15.903H130.92V14.5001ZM132.285 14.5001H133.688V13.0971H132.285V14.5001ZM132.285 15.548V16.9509H133.688V15.548H132.285ZM130.92 15.548V14.1451H129.517V15.548H130.92ZM131.811 19.7391V21.142L131.815 21.142L131.811 19.7391ZM132.285 19.7104H133.688V18.1318L132.121 18.3172L132.285 19.7104ZM132.285 20.7467L132.532 22.1277L133.688 21.9209V20.7467H132.285ZM131.609 20.8103V22.2132H131.616L131.623 22.2131L131.609 20.8103ZM129.674 15.548H131.077V14.145H129.674V15.548ZM128.673 15.548H127.27V16.9509H128.673V15.548ZM128.673 14.5V13.0971H127.27V14.5H128.673ZM129.674 14.5V15.9029H131.077V14.5H129.674ZM129.674 12.9018V11.4989H128.271V12.9018H129.674ZM129.517 12.9018V14.5001H132.323V12.9018H129.517ZM130.92 15.903H132.285V13.0971H130.92V15.903ZM130.883 14.5001V15.548H133.688V14.5001H130.883ZM132.285 14.1451H130.92V16.9509H132.285V14.1451ZM129.517 15.548V18.7896H132.323V15.548H129.517ZM129.517 18.7896C129.517 19.2709 129.609 19.9387 130.11 20.4725C130.631 21.0262 131.31 21.142 131.811 21.142V18.3362C131.693 18.3362 131.926 18.3074 132.156 18.5515C132.366 18.7756 132.323 18.9687 132.323 18.7896H129.517ZM131.815 21.142C132.028 21.1413 132.24 21.1285 132.45 21.1036L132.121 18.3172C132.016 18.3295 131.912 18.3359 131.807 18.3362L131.815 21.142ZM130.883 19.7104V20.7467H133.688V19.7104H130.883ZM132.038 19.3657C131.892 19.3919 131.743 19.4059 131.594 19.4074L131.623 22.2131C131.928 22.21 132.232 22.1814 132.532 22.1277L132.038 19.3657ZM131.609 19.4074C131.337 19.4074 131.171 19.3826 131.079 19.3583C130.993 19.3358 131.006 19.3233 131.05 19.3621C131.1 19.4067 131.115 19.4497 131.111 19.4372C131.101 19.4099 131.077 19.3143 131.077 19.1081H128.271C128.271 19.8959 128.448 20.8095 129.195 21.4679C129.897 22.0857 130.813 22.2132 131.609 22.2132V19.4074ZM131.077 19.1081V15.548H128.271V19.1081H131.077ZM129.674 14.145H128.673V16.9509H129.674V14.145ZM130.076 15.548V14.5H127.27V15.548H130.076ZM128.673 15.9029H129.674V13.0971H128.673V15.9029ZM131.077 14.5V12.9018H128.271V14.5H131.077ZM129.674 14.3047H130.92V11.4989H129.674V14.3047Z" fill="#EDEDED" mask="url(#path-30-inside-9_2_41)"/>
<mask id="path-32-inside-10_2_41" fill="white">
<path d="M133.986 12.0109H135.219V15.4849H135.318C135.483 15.1219 135.756 14.8186 136.1 14.6166C136.444 14.4145 136.842 14.3234 137.24 14.3556C137.545 14.339 137.85 14.39 138.133 14.5048C138.416 14.6197 138.671 14.7956 138.878 15.0201C139.086 15.2446 139.241 15.512 139.333 15.8034C139.425 16.0948 139.452 16.4029 139.411 16.7058V20.7759H138.166V17.0127C138.166 16.0058 137.697 15.4958 136.818 15.4958C136.604 15.4783 136.389 15.5077 136.187 15.582C135.986 15.6562 135.803 15.7736 135.652 15.9258C135.501 16.0781 135.385 16.2615 135.312 16.4633C135.239 16.6651 135.211 16.8804 135.23 17.0941V20.7759H133.986L133.986 12.0109Z"/>
</mask>
<path d="M133.986 12.0109H135.219V15.4849H135.318C135.483 15.1219 135.756 14.8186 136.1 14.6166C136.444 14.4145 136.842 14.3234 137.24 14.3556C137.545 14.339 137.85 14.39 138.133 14.5048C138.416 14.6197 138.671 14.7956 138.878 15.0201C139.086 15.2446 139.241 15.512 139.333 15.8034C139.425 16.0948 139.452 16.4029 139.411 16.7058V20.7759H138.166V17.0127C138.166 16.0058 137.697 15.4958 136.818 15.4958C136.604 15.4783 136.389 15.5077 136.187 15.582C135.986 15.6562 135.803 15.7736 135.652 15.9258C135.501 16.0781 135.385 16.2615 135.312 16.4633C135.239 16.6651 135.211 16.8804 135.23 17.0941V20.7759H133.986L133.986 12.0109Z" fill="#EDEDED"/>
<path d="M133.986 12.0109V10.608H132.583L132.583 12.0109L133.986 12.0109ZM135.219 12.0109H136.622V10.608H135.219V12.0109ZM135.219 15.4849H133.816V16.8878H135.219V15.4849ZM135.318 15.4849V16.8878H136.22L136.594 16.0665L135.318 15.4849ZM137.24 14.3556L137.126 15.7539L137.221 15.7616L137.316 15.7565L137.24 14.3556ZM139.411 16.7058L138.021 16.519L138.008 16.612V16.7058H139.411ZM139.411 20.7759V22.1788H140.814V20.7759H139.411ZM138.166 20.7759H136.763V22.1788H138.166V20.7759ZM136.818 15.4958L136.703 16.8941L136.76 16.8988H136.818V15.4958ZM135.23 17.0941H136.633V17.0318L136.628 16.9698L135.23 17.0941ZM135.23 20.7759V22.1788H136.633V20.7759H135.23ZM133.986 20.7759L132.583 20.7759L132.583 22.1788H133.986V20.7759ZM133.986 13.4138H135.219V10.608H133.986V13.4138ZM133.816 12.0109V15.4849H136.622V12.0109H133.816ZM135.219 16.8878H135.318V14.082H135.219V16.8878ZM136.594 16.0665C136.64 15.966 136.716 15.8821 136.811 15.8262L135.39 13.4069C134.797 13.7552 134.326 14.2777 134.041 14.9033L136.594 16.0665ZM136.811 15.8262C136.906 15.7702 137.016 15.745 137.126 15.7539L137.353 12.9573C136.668 12.9017 135.982 13.0587 135.39 13.4069L136.811 15.8262ZM137.316 15.7565C137.415 15.7511 137.514 15.7676 137.606 15.8049L138.661 13.2048C138.186 13.0123 137.675 12.927 137.164 12.9548L137.316 15.7565ZM137.606 15.8049C137.698 15.8421 137.78 15.8992 137.848 15.9721L139.909 14.0681C139.561 13.692 139.135 13.3972 138.661 13.2048L137.606 15.8049ZM137.848 15.9721C137.915 16.0449 137.965 16.1317 137.995 16.2262L140.671 15.3806C140.516 14.8924 140.256 14.4442 139.909 14.0681L137.848 15.9721ZM137.995 16.2262C138.025 16.3208 138.034 16.4207 138.021 16.519L140.801 16.8926C140.87 16.3851 140.825 15.8689 140.671 15.3806L137.995 16.2262ZM138.008 16.7058V20.7759H140.814V16.7058H138.008ZM139.411 19.373H138.166V22.1788H139.411V19.373ZM139.569 20.7759V17.0127H136.763V20.7759H139.569ZM139.569 17.0127C139.569 16.3159 139.408 15.5453 138.866 14.9402C138.299 14.3079 137.53 14.0929 136.818 14.0929V16.8988C136.904 16.8988 136.924 16.9116 136.902 16.903C136.89 16.8985 136.869 16.8892 136.845 16.8726C136.82 16.8559 136.797 16.8356 136.777 16.8132C136.734 16.7661 136.729 16.7359 136.737 16.7598C136.745 16.788 136.763 16.866 136.763 17.0127H139.569ZM136.932 14.0976C136.515 14.0634 136.095 14.1208 135.702 14.2658L136.673 16.8981C136.683 16.8946 136.693 16.8932 136.703 16.8941L136.932 14.0976ZM135.702 14.2658C135.309 14.4108 134.952 14.64 134.657 14.9372L136.648 16.9144C136.655 16.9072 136.664 16.9017 136.673 16.8981L135.702 14.2658ZM134.657 14.9372C134.362 15.2345 134.135 15.5926 133.993 15.9867L136.632 16.9399C136.635 16.9303 136.641 16.9216 136.648 16.9144L134.657 14.9372ZM133.993 15.9867C133.85 16.3807 133.796 16.801 133.833 17.2183L136.628 16.9698C136.627 16.9597 136.628 16.9495 136.632 16.9399L133.993 15.9867ZM133.827 17.0941V20.7759H136.633V17.0941H133.827ZM135.23 19.373H133.986V22.1788H135.23V19.373ZM135.389 20.7759L135.389 12.0109L132.583 12.0109L132.583 20.7759L135.389 20.7759Z" fill="#EDEDED" mask="url(#path-32-inside-10_2_41)"/>
<path d="M142.288 17.2601H141.696C141.696 17.1896 141.699 17.1191 141.706 17.049L142.288 17.0414V17.2601Z" fill="#EDEDED" stroke="#EDEDED" stroke-width="1.40292"/>
</svg>
