<svg width="155" height="52" viewBox="0 0 84 28" fill="none" xmlns="http://www.w3.org/2000/svg">
<rect x="0.5" y="0.5" width="82.3048" height="26.7683" rx="4.5" stroke="#FF267E"/>
<path d="M17.195 14.0931C17.2024 13.5137 17.3563 12.9456 17.6424 12.4416C17.9284 11.9377 18.3373 11.5142 18.8309 11.2107C18.5173 10.7629 18.1036 10.3943 17.6226 10.1343C17.1417 9.87426 16.6067 9.72997 16.0602 9.71287C14.8945 9.59051 13.7644 10.4104 13.1703 10.4104C12.5648 10.4104 11.6502 9.72502 10.6653 9.74529C10.0282 9.76587 9.40737 9.95112 8.8632 10.283C8.31902 10.6149 7.8701 11.082 7.56016 11.639C6.21757 13.9635 7.21902 17.3797 8.50511 19.2586C9.14857 20.1787 9.90059 21.2064 10.8846 21.17C11.8475 21.13 12.2071 20.556 13.3694 20.556C14.5209 20.556 14.8583 21.17 15.8623 21.1468C16.8955 21.13 17.5465 20.2227 18.1674 19.2939C18.6297 18.6383 18.9855 17.9137 19.2215 17.147C18.6212 16.8932 18.109 16.4682 17.7486 15.9251C17.3882 15.382 17.1957 14.7449 17.195 14.0931V14.0931Z" fill="#FF267E"/>
<path d="M15.2989 8.47714C15.8623 7.80084 16.1399 6.93158 16.0726 6.05394C15.2119 6.14434 14.4169 6.5557 13.8459 7.20605C13.5668 7.52376 13.3529 7.89338 13.2167 8.29378C13.0805 8.69417 13.0245 9.11749 13.052 9.53954C13.4825 9.54397 13.9084 9.45066 14.2976 9.26664C14.6868 9.08261 15.0292 8.81267 15.2989 8.47714Z" fill="#FF267E"/>
<path d="M29.3663 18.8399H26.0803L25.2912 21.17H23.8994L27.0118 12.5494H28.4578L31.5702 21.17H30.1547L29.3663 18.8399ZM26.4206 17.7647H29.0253L27.7413 13.9832H27.7054L26.4206 17.7647Z" fill="#FF267E"/>
<path d="M38.292 18.0291C38.292 19.9822 37.2466 21.2371 35.6691 21.2371C35.2695 21.258 34.872 21.1659 34.5223 20.9714C34.1725 20.777 33.8846 20.4879 33.6915 20.1374H33.6617V23.2505H32.3716V14.8862H33.6204V15.9316H33.6441C33.8461 15.5827 34.1388 15.2952 34.4912 15.0995C34.8436 14.9039 35.2425 14.8074 35.6453 14.8204C37.2405 14.8204 38.292 16.0814 38.292 18.0291ZM36.966 18.0291C36.966 16.7566 36.3084 15.92 35.305 15.92C34.3193 15.92 33.6563 16.7742 33.6563 18.0291C33.6563 19.2955 34.3193 20.1436 35.305 20.1436C36.3084 20.1436 36.966 19.3131 36.966 18.0291Z" fill="#FF267E"/>
<path d="M45.2095 18.0291C45.2095 19.9822 44.1641 21.2371 42.5866 21.2371C42.1869 21.258 41.7895 21.1659 41.4398 20.9714C41.09 20.777 40.8021 20.4879 40.609 20.1374H40.5792V23.2505H39.2891V14.8862H40.5378V15.9315H40.5615C40.7635 15.5827 41.0563 15.2952 41.4087 15.0995C41.7611 14.9039 42.1599 14.8074 42.5628 14.8204C44.158 14.8204 45.2095 16.0814 45.2095 18.0291ZM43.8834 18.0291C43.8834 16.7566 43.2258 15.92 42.2225 15.92C41.2368 15.92 40.5738 16.7742 40.5738 18.0291C40.5738 19.2955 41.2368 20.1436 42.2225 20.1436C43.2258 20.1436 43.8834 19.3131 43.8834 18.0291H43.8834Z" fill="#FF267E"/>
<path d="M49.7808 18.7692C49.8764 19.624 50.7069 20.1853 51.8418 20.1853C52.9292 20.1853 53.7115 19.624 53.7115 18.8532C53.7115 18.1841 53.2397 17.7834 52.1224 17.5089L51.0052 17.2397C49.4222 16.8574 48.6873 16.1171 48.6873 14.9158C48.6873 13.4284 49.9835 12.4067 51.8241 12.4067C53.6457 12.4067 54.8945 13.4284 54.9365 14.9158H53.6342C53.5562 14.0555 52.8451 13.5362 51.8058 13.5362C50.7665 13.5362 50.0554 14.0616 50.0554 14.8263C50.0554 15.4357 50.5096 15.7944 51.6207 16.0689L52.5705 16.3021C54.3392 16.7204 55.0741 17.4309 55.0741 18.6918C55.0741 20.3046 53.7894 21.3148 51.7462 21.3148C49.8344 21.3148 48.5436 20.3284 48.4602 18.7691L49.7808 18.7692Z" fill="#FF267E"/>
<path d="M57.8596 13.3986V14.886H59.0548V15.9076H57.8596V19.3725C57.8596 19.9108 58.0989 20.1617 58.6243 20.1617C58.7662 20.1592 58.9079 20.1492 59.0487 20.1318V21.1474C58.8125 21.1915 58.5724 21.2115 58.3321 21.207C57.0596 21.207 56.5634 20.7291 56.5634 19.5101V15.9076H55.6495V14.886H56.5634V13.3986H57.8596Z" fill="#FF267E"/>
<path d="M59.7467 18.0288C59.7467 16.0512 60.9114 14.8086 62.7276 14.8086C64.5499 14.8086 65.7091 16.0512 65.7091 18.0288C65.7091 20.0117 64.556 21.249 62.7276 21.249C60.8998 21.249 59.7467 20.0117 59.7467 18.0288ZM64.3946 18.0288C64.3946 16.6722 63.7729 15.8716 62.7276 15.8716C61.6822 15.8716 61.0612 16.6783 61.0612 18.0288C61.0612 19.3907 61.6822 20.1853 62.7276 20.1853C63.7729 20.1853 64.3946 19.3907 64.3946 18.0288H64.3946Z" fill="#FF267E"/>
<path d="M66.7727 14.8861H68.0032V15.9559H68.033C68.1163 15.6218 68.312 15.3265 68.5873 15.1197C68.8626 14.9129 69.2007 14.8072 69.5448 14.8204C69.6935 14.8198 69.8417 14.836 69.9868 14.8685V16.0752C69.7991 16.0179 69.6033 15.9915 69.4072 15.9973C69.2197 15.9896 69.0329 16.0227 68.8594 16.0941C68.686 16.1655 68.5301 16.2737 68.4024 16.411C68.2746 16.5484 68.1782 16.7118 68.1196 16.89C68.0609 17.0682 68.0416 17.2569 68.0628 17.4433V21.1712H66.7727L66.7727 14.8861Z" fill="#FF267E"/>
<path d="M75.9354 19.325C75.7619 20.4659 74.6507 21.249 73.2291 21.249C71.4007 21.249 70.2659 20.0239 70.2659 18.0586C70.2659 16.0872 71.4068 14.8086 73.1749 14.8086C74.9138 14.8086 76.0073 16.0031 76.0073 17.9088V18.3508H71.5682V18.4288C71.5477 18.6601 71.5767 18.8931 71.6531 19.1123C71.7296 19.3316 71.8519 19.5321 72.0118 19.7005C72.1717 19.8688 72.3656 20.0013 72.5806 20.0889C72.7957 20.1766 73.0269 20.2176 73.259 20.209C73.5638 20.2376 73.8698 20.167 74.1313 20.0077C74.3928 19.8484 74.5959 19.609 74.7104 19.325L75.9354 19.325ZM71.5743 17.4491H74.7165C74.7281 17.2412 74.6966 17.033 74.6239 16.8378C74.5512 16.6426 74.439 16.4645 74.2942 16.3147C74.1495 16.1649 73.9753 16.0467 73.7827 15.9674C73.5901 15.8881 73.3831 15.8495 73.1749 15.854C72.9648 15.8527 72.7565 15.8931 72.5621 15.9727C72.3677 16.0524 72.191 16.1698 72.0422 16.3181C71.8934 16.4664 71.7754 16.6427 71.6951 16.8368C71.6148 17.0309 71.5737 17.2391 71.5743 17.4492V17.4491Z" fill="#FF267E"/>
<path d="M26.2589 6.0601C26.5294 6.0407 26.8008 6.08156 27.0535 6.17974C27.3063 6.27792 27.5341 6.43098 27.7206 6.62788C27.907 6.82477 28.0475 7.06059 28.1318 7.31833C28.216 7.57606 28.2421 7.8493 28.208 8.11831C28.208 9.44164 27.4927 10.2023 26.2589 10.2023H24.7627V6.0601H26.2589ZM25.406 9.61651H26.187C26.3803 9.62807 26.5737 9.59638 26.7532 9.52375C26.9327 9.45113 27.0937 9.3394 27.2246 9.19669C27.3554 9.05399 27.4528 8.8839 27.5096 8.69882C27.5664 8.51373 27.5813 8.3183 27.5531 8.12675C27.5792 7.93596 27.5629 7.74174 27.5052 7.55801C27.4475 7.37428 27.3499 7.20559 27.2193 7.06402C27.0888 6.92245 26.9285 6.81151 26.75 6.73915C26.5716 6.66679 26.3793 6.63479 26.187 6.64547H25.406V9.61651Z" fill="#FF267E"/>
<path d="M28.9348 8.639C28.9152 8.43357 28.9387 8.2263 29.0038 8.03049C29.069 7.83468 29.1743 7.65464 29.3131 7.50193C29.4519 7.34921 29.6211 7.2272 29.8098 7.1437C29.9985 7.06021 30.2026 7.01707 30.409 7.01707C30.6154 7.01707 30.8195 7.06021 31.0082 7.1437C31.1969 7.2272 31.3661 7.34921 31.5049 7.50193C31.6437 7.65464 31.749 7.83468 31.8142 8.03049C31.8793 8.2263 31.9028 8.43357 31.8832 8.639C31.9032 8.84464 31.88 9.05219 31.815 9.24832C31.75 9.44445 31.6447 9.62482 31.5059 9.77783C31.3671 9.93084 31.1978 10.0531 31.0088 10.1368C30.8199 10.2205 30.6156 10.2637 30.409 10.2637C30.2024 10.2637 29.9981 10.2205 29.8091 10.1368C29.6202 10.0531 29.4509 9.93084 29.3121 9.77783C29.1733 9.62482 29.068 9.44445 29.003 9.24832C28.938 9.05219 28.9148 8.84464 28.9348 8.639V8.639ZM31.2486 8.639C31.2486 7.96141 30.9442 7.56515 30.41 7.56515C29.8738 7.56515 29.5721 7.96141 29.5721 8.63901C29.5721 9.32203 29.8738 9.71522 30.41 9.71522C30.9442 9.71522 31.2486 9.3193 31.2486 8.639H31.2486Z" fill="#FF267E"/>
<path d="M35.8021 10.2034H35.1621L34.5161 7.90114H34.4673L33.8239 10.2034H33.19L32.3284 7.07745H32.9541L33.5141 9.46274H33.5602L34.2029 7.07745H34.7947L35.4374 9.46274H35.4862L36.0434 7.07745H36.6604L35.8021 10.2034Z" fill="#FF267E"/>
<path d="M37.3851 7.07768H37.979V7.57427H38.0251C38.1033 7.39591 38.2352 7.2464 38.4024 7.14657C38.5696 7.04674 38.7638 7.00157 38.9579 7.01734C39.11 7.00591 39.2628 7.02884 39.4048 7.08444C39.5468 7.14005 39.6745 7.2269 39.7784 7.33855C39.8824 7.45021 39.9598 7.58382 40.0051 7.72948C40.0503 7.87514 40.0622 8.02911 40.0399 8.18V10.2036H39.423V8.33492C39.423 7.83257 39.2047 7.58275 38.7485 7.58275C38.6452 7.57794 38.5421 7.59551 38.4463 7.63427C38.3504 7.67303 38.2641 7.73205 38.1932 7.80729C38.1223 7.88253 38.0685 7.97221 38.0355 8.07019C38.0025 8.16816 37.9911 8.27211 38.002 8.37491V10.2036H37.3851L37.3851 7.07768Z" fill="#FF267E"/>
<path d="M41.0232 5.85699H41.6401V10.2032H41.0232V5.85699Z" fill="#FF267E"/>
<path d="M42.4968 8.63906C42.4772 8.43361 42.5007 8.22634 42.5659 8.03052C42.631 7.83469 42.7364 7.65465 42.8752 7.50194C43.014 7.34922 43.1832 7.2272 43.372 7.1437C43.5607 7.06021 43.7648 7.01707 43.9712 7.01707C44.1775 7.01707 44.3816 7.06021 44.5704 7.1437C44.7591 7.2272 44.9283 7.34922 45.0671 7.50194C45.2059 7.65465 45.3113 7.83469 45.3765 8.03052C45.4416 8.22634 45.4651 8.43361 45.4455 8.63906C45.4655 8.8447 45.4423 9.05226 45.3773 9.24839C45.3123 9.44452 45.207 9.62488 45.0681 9.77789C44.9293 9.9309 44.7599 10.0532 44.571 10.1368C44.3821 10.2205 44.1778 10.2637 43.9712 10.2637C43.7645 10.2637 43.5602 10.2205 43.3713 10.1368C43.1824 10.0532 43.0131 9.9309 42.8742 9.77789C42.7354 9.62488 42.6301 9.44452 42.5651 9.24839C42.5001 9.05226 42.4768 8.8447 42.4968 8.63906V8.63906ZM44.8106 8.63906C44.8106 7.96146 44.5062 7.56521 43.972 7.56521C43.4358 7.56521 43.1341 7.96146 43.1341 8.63906C43.1341 9.32208 43.4358 9.71528 43.972 9.71528C44.5062 9.71527 44.8106 9.31936 44.8106 8.63906H44.8106Z" fill="#FF267E"/>
<path d="M46.0959 9.31933C46.0959 8.75665 46.5149 8.43226 47.2586 8.38616L48.1053 8.33735V8.06753C48.1053 7.73737 47.887 7.55095 47.4654 7.55095C47.121 7.55095 46.8824 7.67738 46.8139 7.89839H46.2166C46.2797 7.36146 46.7847 7.01707 47.4938 7.01707C48.2775 7.01707 48.7196 7.40722 48.7196 8.06753V10.2034H48.1257V9.76406H48.0769C47.9778 9.92164 47.8387 10.0501 47.6737 10.1363C47.5088 10.2226 47.3239 10.2635 47.1379 10.2549C47.0067 10.2685 46.8741 10.2545 46.7486 10.2138C46.6231 10.173 46.5075 10.1064 46.4094 10.0183C46.3112 9.93014 46.2326 9.8224 46.1786 9.70202C46.1246 9.58163 46.0965 9.45127 46.0959 9.31933V9.31933ZM48.1053 9.05222V8.79088L47.342 8.83969C46.9115 8.8685 46.7163 9.01494 46.7163 9.29052C46.7163 9.57186 46.9603 9.73558 47.2959 9.73558C47.3942 9.74553 47.4936 9.7356 47.588 9.70638C47.6824 9.67717 47.77 9.62925 47.8455 9.5655C47.921 9.50174 47.9829 9.42344 48.0276 9.33527C48.0722 9.24709 48.0987 9.15083 48.1053 9.05222V9.05222Z" fill="#FF267E"/>
<path d="M49.5304 8.63891C49.5304 7.65116 50.0382 7.02542 50.828 7.02542C51.0233 7.01642 51.2172 7.06321 51.387 7.16033C51.5567 7.25744 51.6953 7.40087 51.7866 7.57385H51.8327V5.85699H52.4496V10.2032H51.8584V9.70935H51.8096C51.7113 9.88116 51.5679 10.0228 51.3948 10.1189C51.2218 10.2151 51.0258 10.262 50.828 10.2547C50.0327 10.2548 49.5304 9.62903 49.5304 8.63891ZM50.1677 8.63891C50.1677 9.30193 50.4802 9.70089 51.0029 9.70089C51.5229 9.70089 51.8442 9.29617 51.8442 8.64162C51.8442 7.99012 51.5195 7.57963 51.0029 7.57963C50.4836 7.57963 50.1677 7.98131 50.1677 8.63891H50.1677Z" fill="#FF267E"/>
<path d="M55.0016 8.639C54.982 8.43357 55.0054 8.2263 55.0706 8.03049C55.1357 7.83468 55.2411 7.65464 55.3799 7.50193C55.5187 7.34921 55.6879 7.2272 55.8766 7.1437C56.0653 7.06021 56.2694 7.01707 56.4758 7.01707C56.6821 7.01707 56.8862 7.06021 57.0749 7.1437C57.2637 7.2272 57.4328 7.34921 57.5716 7.50193C57.7104 7.65464 57.8158 7.83468 57.8809 8.03049C57.9461 8.2263 57.9696 8.43357 57.9499 8.639C57.97 8.84464 57.9467 9.05219 57.8818 9.24832C57.8168 9.44445 57.7115 9.62482 57.5727 9.77783C57.4338 9.93084 57.2645 10.0531 57.0756 10.1368C56.8867 10.2205 56.6824 10.2637 56.4758 10.2637C56.2692 10.2637 56.0648 10.2205 55.8759 10.1368C55.687 10.0531 55.5177 9.93084 55.3789 9.77783C55.24 9.62482 55.1347 9.44445 55.0698 9.24832C55.0048 9.05219 54.9816 8.84464 55.0016 8.639V8.639ZM57.3154 8.639C57.3154 7.96141 57.011 7.56515 56.4768 7.56515C55.9405 7.56515 55.6389 7.96141 55.6389 8.63901C55.6389 9.32203 55.9406 9.71522 56.4768 9.71522C57.011 9.71522 57.3154 9.3193 57.3154 8.639Z" fill="#FF267E"/>
<path d="M58.7782 7.07768H59.3721V7.57427H59.4182C59.4964 7.39591 59.6283 7.2464 59.7955 7.14657C59.9627 7.04674 60.1569 7.00157 60.351 7.01734C60.5031 7.00591 60.6558 7.02884 60.7979 7.08444C60.9399 7.14005 61.0676 7.2269 61.1715 7.33855C61.2754 7.45021 61.3529 7.58382 61.3981 7.72948C61.4434 7.87514 61.4553 8.02911 61.433 8.18V10.2036H60.8161V8.33492C60.8161 7.83257 60.5978 7.58275 60.1415 7.58275C60.0383 7.57794 59.9352 7.59551 59.8393 7.63427C59.7435 7.67303 59.6572 7.73205 59.5863 7.80729C59.5154 7.88253 59.4616 7.97221 59.4286 8.07019C59.3956 8.16816 59.3842 8.27211 59.3951 8.37491V10.2036H58.7782V7.07768Z" fill="#FF267E"/>
<path d="M64.9179 6.29901V7.09151H65.5952V7.61115H64.9179V9.21854C64.9179 9.54598 65.0528 9.68936 65.3599 9.68936C65.4386 9.68911 65.5171 9.68435 65.5952 9.67512V10.189C65.4844 10.2088 65.3721 10.2194 65.2596 10.2205C64.5735 10.2205 64.3003 9.97917 64.3003 9.37649V7.61113H63.8041V7.09149H64.3003V6.29901H64.9179Z" fill="#FF267E"/>
<path d="M66.4387 5.85699H67.0502V7.57963H67.099C67.181 7.39961 67.3166 7.24925 67.4871 7.14904C67.6577 7.04883 67.855 7.00365 68.0522 7.01965C68.2035 7.01142 68.3547 7.03668 68.4952 7.09364C68.6356 7.15059 68.7617 7.23783 68.8645 7.34914C68.9674 7.46045 69.0444 7.59308 69.09 7.73756C69.1357 7.88205 69.1489 8.03484 69.1287 8.18502V10.2032H68.5112V8.33721C68.5112 7.83791 68.2786 7.58504 67.8427 7.58504C67.7367 7.57635 67.6301 7.59092 67.5303 7.62775C67.4304 7.66458 67.3399 7.72278 67.2649 7.79826C67.1899 7.87375 67.1324 7.9647 67.0962 8.06477C67.0601 8.16483 67.0462 8.27158 67.0557 8.37755V10.2032H66.4387L66.4387 5.85699Z" fill="#FF267E"/>
<path d="M72.7249 9.35911C72.6411 9.6448 72.4595 9.89193 72.2119 10.0573C71.9643 10.2226 71.6664 10.2956 71.3704 10.2635C71.1645 10.2689 70.9598 10.2295 70.7706 10.1479C70.5815 10.0663 70.4123 9.94451 70.2749 9.79099C70.1375 9.63748 70.0352 9.4559 69.975 9.25887C69.9148 9.06184 69.8983 8.85408 69.9264 8.65C69.899 8.44528 69.9159 8.23707 69.9759 8.03945C70.0359 7.84183 70.1377 7.65941 70.2744 7.50456C70.4111 7.3497 70.5794 7.22601 70.768 7.14187C70.9567 7.05772 71.1612 7.01509 71.3677 7.01685C72.2375 7.01685 72.7622 7.61109 72.7622 8.5927V8.80796H70.5549V8.84253C70.5452 8.95725 70.5596 9.07271 70.5972 9.18153C70.6348 9.29035 70.6947 9.39011 70.773 9.47443C70.8514 9.55874 70.9466 9.62575 71.0523 9.67115C71.1581 9.71654 71.2722 9.73933 71.3874 9.73806C71.5349 9.75577 71.6844 9.7292 71.8169 9.66172C71.9493 9.59424 72.0587 9.4889 72.1311 9.35909L72.7249 9.35911ZM70.5548 8.3517H72.1337C72.1415 8.24679 72.1273 8.14141 72.0919 8.04233C72.0565 7.94326 72.0008 7.85268 71.9283 7.77641C71.8559 7.70015 71.7683 7.63989 71.6711 7.59951C71.574 7.55912 71.4695 7.5395 71.3643 7.54191C71.2576 7.54057 71.1517 7.56061 71.0529 7.60083C70.954 7.64106 70.8643 7.70066 70.7888 7.77613C70.7134 7.8516 70.6538 7.94141 70.6136 8.04026C70.5735 8.13911 70.5535 8.24501 70.5549 8.3517H70.5548Z" fill="#FF267E"/>
</svg>
