<svg width="421" height="184" viewBox="0 0 421 184" fill="none" xmlns="http://www.w3.org/2000/svg">
    <symbol id="logo" viewBox="0 0 421 184">
<path d="M421 0H0V183.753H101.179V91.8763H421V0Z" fill="#FF267E"/>
<path d="M71.6579 44.2369H40.8564V35.3019H78.0892V22.9675H23.0094V68.9057H40.8564V56.5713H71.6579V44.2369Z" fill="#000055"/>
<path d="M169.408 53.5623L153.054 22.9675H132.588L159.094 68.9057H179.445L205.951 22.9675H185.739L169.408 53.5623Z" fill="#000055"/>
<path d="M263.192 45.5691C267.278 43.9911 270.012 40.0726 270.083 35.6924C270.083 28.1585 263.72 22.9675 251.179 22.9675H210.8V68.9057H252.144C265.604 68.9057 271.576 63.5998 271.576 55.9052C271.484 51.61 268.888 47.7282 263.192 45.5691ZM228.21 34.0846H248.078C248.306 34.0386 248.538 34.0156 248.77 34.0156C250.699 34.0156 252.284 35.6028 252.284 37.5299C252.284 39.457 250.699 41.0442 248.77 41.0442C248.538 41.0442 248.306 41.0212 248.078 40.9753H228.21V34.0846ZM249.571 57.9724H228.21V51.0817H249.571C249.799 51.0357 250.031 51.0128 250.263 51.0128C252.192 51.0128 253.777 52.5999 253.777 54.527C253.777 56.4541 252.192 58.0413 250.263 58.0413C250.031 58.0413 249.799 58.0183 249.571 57.9724Z" fill="#000055"/>
<path d="M297.778 50.9209H328.511V40.9523H297.778V35.3019H331.749V22.9675H279.931V68.9057H332.553V56.5713H297.778V50.9209Z" fill="#000055"/>
<path d="M339.983 22.9675V35.3019H360.012V68.9057H378.042V35.3019H398.071V22.9675H339.983Z" fill="#000055"/>
<path d="M98.7904 22.9675L72.3301 68.9057H91.2796L94.8857 62.1298H123.207L126.79 68.9057H146.543L120.037 22.9675H98.7904ZM101.087 50.2088L108.92 35.4168L116.775 50.2088H101.087Z" fill="#000055"/>
<path d="M16.0963 129.177L31.21 155.821H50.6188L35.5052 129.177H16.0963Z" fill="#000055"/>
<path d="M65.6725 129.177L50.5588 155.821H69.9447L85.0584 129.177H65.6725Z" fill="#000055"/>
<path d="M50.6079 102.578L35.4943 129.177H65.7216L50.6079 102.578Z" fill="#000055"/>
    </symbol>
</svg>
