<svg width="46" height="37" viewBox="0 0 46 37" fill="none" xmlns="http://www.w3.org/2000/svg">
<symbol id="mastercard" viewBox="0 0 46 37">
    <path fill-rule="evenodd" clip-rule="evenodd" d="M13.6802 27.3792C16.7518 27.3792 19.5875 26.3667 21.8709 24.6574C18.9744 21.9026 17.1688 18.0119 17.1688 13.6993C17.1688 9.38635 18.9744 5.49564 21.8709 2.74117C19.5875 1.03153 16.7518 0.019043 13.6802 0.019043C6.12487 0.019043 0 6.14391 0 13.6993C0 21.2543 6.12487 27.3792 13.6802 27.3792ZM32.289 0.019043C29.2171 0.019043 26.3817 1.03153 24.0984 2.74117C26.9945 5.49564 28.8001 9.38635 28.8001 13.6993C28.8001 18.0119 26.9945 21.9026 24.0984 24.6574C26.3817 26.3667 29.2171 27.3792 32.289 27.3792C39.844 27.3792 45.9689 21.2543 45.9689 13.6993C45.9689 6.14391 39.844 0.019043 32.289 0.019043ZM27.3601 13.6993C27.3601 9.73721 25.6758 6.16852 22.9846 3.67034C20.2931 6.16852 18.6088 9.73721 18.6088 13.6993C18.6088 17.661 20.2931 21.2297 22.9846 23.7279C25.6758 21.2297 27.3601 17.661 27.3601 13.6993Z" fill="#EDEDED"/>
<path d="M7.31205 35.9349V33.4094C7.31205 32.4413 6.72415 31.8099 5.71631 31.8099C5.21239 31.8099 4.66648 31.9783 4.28854 32.5255C3.99459 32.0625 3.57465 31.8099 2.94475 31.8099C2.52482 31.8099 2.10489 31.9362 1.76895 32.3992V31.8941H0.887085V35.9349H1.76895V33.704C1.76895 32.9885 2.14688 32.6517 2.73479 32.6517C3.32269 32.6517 3.61665 33.0306 3.61665 33.704V35.9349H4.49851V33.704C4.49851 32.9885 4.91844 32.6517 5.46435 32.6517C6.05225 32.6517 6.34621 33.0306 6.34621 33.704V35.9349H7.31205ZM20.372 31.8941H18.9442V30.6735H18.0623V31.8941H17.2645V32.6938H18.0623V34.5458C18.0623 35.4719 18.4403 36.019 19.4481 36.019C19.826 36.019 20.246 35.8928 20.5399 35.7244L20.288 34.9668C20.036 35.1351 19.7421 35.1772 19.5321 35.1772C19.1122 35.1772 18.9442 34.9247 18.9442 34.5038V32.6938H20.372V31.8941ZM27.8468 31.8099C27.3428 31.8099 27.0069 32.0625 26.7969 32.3992V31.8941H25.9151V35.9349H26.7969V33.6619C26.7969 32.9885 27.0909 32.6097 27.6368 32.6097C27.8048 32.6097 28.0147 32.6517 28.1827 32.6938L28.4347 31.852C28.2667 31.8099 28.0147 31.8099 27.8468 31.8099ZM16.5506 32.2308C16.1306 31.9362 15.5427 31.8099 14.9128 31.8099C13.905 31.8099 13.2331 32.315 13.2331 33.1147C13.2331 33.7882 13.737 34.167 14.6189 34.2933L15.0388 34.3354C15.5007 34.4196 15.7527 34.5458 15.7527 34.7563C15.7527 35.0509 15.4167 35.2614 14.8288 35.2614C14.2409 35.2614 13.779 35.0509 13.4851 34.8405L13.0651 35.514C13.5271 35.8507 14.157 36.019 14.7869 36.019C15.9627 36.019 16.6346 35.4719 16.6346 34.7142C16.6346 33.9987 16.0886 33.6198 15.2488 33.4936L14.8288 33.4515C14.4509 33.4094 14.157 33.3252 14.157 33.0727C14.157 32.778 14.4509 32.6097 14.9128 32.6097C15.4168 32.6097 15.9207 32.8201 16.1726 32.9464L16.5506 32.2308ZM39.9828 31.8099C39.4789 31.8099 39.143 32.0625 38.933 32.3992V31.8941H38.0511V35.9349H38.933V33.6619C38.933 32.9885 39.2269 32.6097 39.7729 32.6097C39.9408 32.6097 40.1508 32.6517 40.3188 32.6938L40.5707 31.852C40.4028 31.8099 40.1508 31.8099 39.9828 31.8099ZM28.7286 33.9145C28.7286 35.1351 29.5685 36.019 30.8703 36.019C31.4582 36.019 31.8781 35.8928 32.298 35.556L31.8781 34.8405C31.5422 35.093 31.2062 35.2193 30.8283 35.2193C30.1144 35.2193 29.6105 34.7142 29.6105 33.9145C29.6105 33.1568 30.1144 32.6518 30.8283 32.6097C31.2062 32.6097 31.5422 32.7359 31.8781 32.9885L32.298 32.2729C31.8781 31.9362 31.4582 31.8099 30.8703 31.8099C29.5685 31.8099 28.7286 32.6938 28.7286 33.9145ZM36.8753 33.9145V31.8941H35.9935V32.3992C35.6995 32.0204 35.2796 31.8099 34.7337 31.8099C33.5998 31.8099 32.718 32.6938 32.718 33.9145C32.718 35.1351 33.5998 36.019 34.7337 36.019C35.3216 36.019 35.7415 35.8086 35.9935 35.4298V35.9349H36.8753V33.9145ZM33.6418 33.9145C33.6418 33.1989 34.1038 32.6097 34.8596 32.6097C35.5735 32.6097 36.0774 33.1568 36.0774 33.9145C36.0774 34.63 35.5735 35.2193 34.8596 35.2193C34.1038 35.1772 33.6418 34.63 33.6418 33.9145ZM23.1015 31.8099C21.9257 31.8099 21.0858 32.6517 21.0858 33.9145C21.0858 35.1772 21.9257 36.019 23.1435 36.019C23.7314 36.019 24.3193 35.8507 24.7813 35.4719L24.3613 34.8405C24.0254 35.093 23.6054 35.2614 23.1855 35.2614C22.6396 35.2614 22.0937 35.0089 21.9677 34.2933H24.9492C24.9492 34.167 24.9492 34.0828 24.9492 33.9566C24.9912 32.6517 24.2353 31.8099 23.1015 31.8099ZM23.1015 32.5676C23.6474 32.5676 24.0254 32.9043 24.1094 33.5357H22.0097C22.0937 32.9885 22.4716 32.5676 23.1015 32.5676ZM44.98 33.9145V30.2946H44.0982V32.3992C43.8042 32.0204 43.3843 31.8099 42.8384 31.8099C41.7045 31.8099 40.8227 32.6938 40.8227 33.9145C40.8227 35.1351 41.7045 36.019 42.8384 36.019C43.4263 36.019 43.8462 35.8086 44.0982 35.4298V35.9349H44.98V33.9145ZM41.7465 33.9145C41.7465 33.1989 42.2085 32.6097 42.9643 32.6097C43.6782 32.6097 44.1821 33.1568 44.1821 33.9145C44.1821 34.63 43.6782 35.2193 42.9643 35.2193C42.2085 35.1772 41.7465 34.63 41.7465 33.9145ZM12.2673 33.9145V31.8941H11.3854V32.3992C11.0914 32.0204 10.6715 31.8099 10.1256 31.8099C8.99179 31.8099 8.10992 32.6938 8.10992 33.9145C8.10992 35.1351 8.99179 36.019 10.1256 36.019C10.7135 36.019 11.1334 35.8086 11.3854 35.4298V35.9349H12.2673V33.9145ZM8.99178 33.9145C8.99178 33.1989 9.4537 32.6097 10.2096 32.6097C10.9235 32.6097 11.4274 33.1568 11.4274 33.9145C11.4274 34.63 10.9235 35.2193 10.2096 35.2193C9.4537 35.1772 8.99178 34.63 8.99178 33.9145Z" fill="#EDEDED"/>
</symbol>
</svg>
