<svg width="58" height="28" viewBox="0 0 58 28" fill="none" xmlns="http://www.w3.org/2000/svg">
<symbol id="applePay" viewBox="0 0 58 28">
    <path fill-rule="evenodd" clip-rule="evenodd" d="M13.153 0C13.1772 0.238218 13.1877 0.477652 13.1842 0.717108C13.1063 1.94683 12.5908 3.10743 11.7318 3.98696C11.3395 4.40042 10.905 4.76312 10.3703 4.97632C9.91293 5.16012 9.43462 5.19567 8.95261 5.2315L8.94641 5.23196L8.94486 5.23185C8.9434 5.23163 8.94194 5.23113 8.94047 5.23046C8.93901 5.22983 8.93754 5.22903 8.93608 5.22814L8.93117 5.22481C8.92851 5.22301 8.92592 5.22123 8.92343 5.21997C8.9923 2.39495 10.4098 0.567584 13.153 0ZM17.4092 7.00381L17.2368 7.16205C17.0751 7.31007 16.9134 7.45816 16.7543 7.60925C15.9908 8.33466 15.4176 9.17818 15.2154 10.2303C15.0699 10.9213 15.0748 11.6358 15.2298 12.3247C15.3847 13.0136 15.686 13.6608 16.113 14.2219C16.5531 14.8209 17.0776 15.3183 17.7758 15.6062C17.8251 15.6263 17.8747 15.645 17.9283 15.6651C17.9636 15.6784 18.0006 15.6924 18.0403 15.7078C18.0241 15.7518 18.0082 15.7956 17.9926 15.8393L17.9571 15.939L17.9504 15.9577L17.9426 15.9799C17.8878 16.1349 17.8334 16.2881 17.7712 16.4387C17.2025 17.8231 16.463 19.1041 15.4534 20.2153C15.2625 20.4207 15.0564 20.6114 14.837 20.7856C14.102 21.3855 13.2752 21.6162 12.3428 21.3394C11.8779 21.2028 11.4186 21.0496 10.9556 20.9065C10.4839 20.7463 9.99222 20.6531 9.49489 20.6296C8.87203 20.6149 8.30066 20.8022 7.72188 21.0145C7.28868 21.1862 6.84575 21.332 6.39534 21.451C5.68519 21.6218 5.0421 21.4021 4.4542 21.0016C3.8756 20.5905 3.37731 20.0758 2.98432 19.4834C1.96029 18.0349 1.19125 16.4207 0.710617 14.711C0.279311 13.1939 0.175574 11.6017 0.406551 10.0411C0.614112 8.6503 1.13047 7.39514 2.10242 6.35779C3.11293 5.28351 4.35769 4.84144 5.81475 4.98727C6.54048 5.05926 7.23315 5.27059 7.92763 5.47363C8.05634 5.51139 8.18633 5.54497 8.31676 5.57718L8.41748 5.60178L8.52303 5.62732C8.57149 5.63903 8.62005 5.65076 8.66852 5.66266C8.7144 5.67391 8.7602 5.68531 8.80591 5.69697C9.2163 5.78988 9.64416 5.76851 10.0434 5.63514C10.3436 5.54703 10.6418 5.45256 10.9394 5.35829L10.9412 5.3577C11.2104 5.27244 11.4791 5.18735 11.7484 5.10723C12.584 4.84445 13.4709 4.79122 14.3317 4.95219C15.4635 5.17184 16.3582 5.78282 17.107 6.63927C17.1988 6.74633 17.2908 6.85522 17.3826 6.96414C17.3926 6.97654 17.4016 6.98981 17.4092 7.00381ZM27.917 3.00862C26.422 3.00039 24.9288 3.1174 23.4532 3.3584V21.2397H25.7784V13.9912C26.313 14.125 26.9543 14.1518 27.6487 14.1518C29.9206 14.1518 31.9243 13.479 33.1562 12.162C34.0647 11.2225 34.5461 9.93319 34.5461 8.29595C34.5461 6.68733 33.9581 5.37125 32.9697 4.51203C31.8985 3.54573 30.2137 3.00862 27.917 3.00862ZM27.702 12.2672C26.9276 12.2672 26.2854 12.2174 25.7784 12.0826V5.04269C26.1789 4.9384 26.9543 4.85811 27.9693 4.85811C30.5352 4.85811 32.2182 6.01176 32.2182 8.40115C32.2182 10.8985 30.5077 12.2672 27.702 12.2672ZM42.9316 21.238L42.7479 19.5998H42.6679C41.9459 20.6206 40.555 21.5333 38.7121 21.5333C36.094 21.5333 34.7573 19.681 34.7573 17.8011C34.7573 14.6632 37.5372 12.942 42.5338 12.9687V12.7002C42.5338 11.6268 42.2398 9.69334 39.5941 9.69334C38.3915 9.69334 37.1358 10.0699 36.2272 10.6605L35.6925 9.1036C36.7618 8.40495 38.3116 7.94904 39.9413 7.94904C43.8971 7.94904 44.859 10.6605 44.859 13.2641V18.1204C44.859 19.2482 44.9123 20.3492 45.0721 21.2352L42.9316 21.238ZM42.5843 14.6069C40.0194 14.5534 37.1063 15.0093 37.1063 17.5325C37.1063 19.0627 38.1215 19.7881 39.3249 19.7881C41.0079 19.7881 42.0809 18.7138 42.4484 17.6137C42.5312 17.3714 42.5762 17.1177 42.5816 16.8616L42.5843 14.6069ZM50.812 15.923L47.9798 8.24535H45.4149L50.1937 20.2145C50.3013 20.5099 50.3546 20.6972 50.3546 20.832C50.3546 20.9667 50.2783 21.1541 50.1708 21.3959C49.7242 22.4153 49.0473 23.3162 48.1938 24.0271C47.5875 24.5412 46.889 24.9343 46.136 25.1853L46.7239 27.1714C47.3129 27.0644 48.4612 26.662 49.6095 25.6413C51.2135 24.244 52.3618 21.9635 54.0458 17.5067L57.5735 8.24535H55.0884L52.5189 15.8695C52.3115 16.4806 52.126 17.1143 51.9554 17.6971C51.8636 18.0103 51.7762 18.3087 51.6921 18.581H51.6388C51.4266 17.8021 51.106 16.7823 50.812 15.923Z" />
</symbol>
</svg>
