<svg width="189" height="57" viewBox="0 0 189 57" fill="none" xmlns="http://www.w3.org/2000/svg">
<rect x="1.08098" y="0.90019" width="187.13" height="54.5971" rx="6.31314" stroke="#EDEDED" stroke-width="1.40292"/>
<path d="M181.93 55.4973H7.36223C3.91078 55.4973 1.08098 52.663 1.08098 49.1987V7.19873C1.08098 3.7345 3.91078 0.90019 7.36223 0.90019H181.93C185.382 0.90019 188.211 3.7345 188.211 7.19873V49.1987C188.211 52.663 185.382 55.4973 181.93 55.4973Z" stroke="#EDEDED" stroke-width="1.40292"/>
<path d="M66.6028 14.5346C66.6028 15.7106 66.2537 16.6486 65.5554 17.3346C64.7733 18.1606 63.7399 18.5806 62.483 18.5806C61.268 18.5806 60.2485 18.1606 59.3966 17.3206C58.5447 16.4806 58.1258 15.4306 58.1258 14.1986C58.1258 12.9526 58.5447 11.9166 59.3966 11.0766C60.2485 10.2366 61.268 9.81662 62.483 9.81662C63.0835 9.81662 63.6561 9.92862 64.2007 10.1666C64.7454 10.4046 65.1783 10.7126 65.5135 11.1046L64.7733 11.8466C64.2147 11.1886 63.4606 10.8526 62.483 10.8526C61.6032 10.8526 60.8351 11.1606 60.1927 11.7906C59.5503 12.4066 59.2291 13.2186 59.2291 14.2126C59.2291 15.2066 59.5503 16.0186 60.1927 16.6346C60.8351 17.2506 61.6032 17.5726 62.483 17.5726C63.4187 17.5726 64.2007 17.2646 64.8292 16.6346C65.2342 16.2286 65.4716 15.6546 65.5275 14.9266H62.483V13.9046H66.5469C66.5749 14.1286 66.6028 14.3386 66.6028 14.5346Z" fill="#EDEDED" stroke="#EDEDED" stroke-width="0.280584" stroke-miterlimit="10"/>
<path d="M73.0415 11.0358H69.229V13.6958H72.6645V14.7038H69.229V17.3638H73.0415V18.3998H68.1536V9.99982H73.0415V11.0358Z" fill="#EDEDED" stroke="#EDEDED" stroke-width="0.280584" stroke-miterlimit="10"/>
<path d="M77.58 18.3998H76.5046V11.0358H74.1584V9.99982H79.9122V11.0358H77.566V18.3998H77.58Z" fill="#EDEDED" stroke="#EDEDED" stroke-width="0.280584" stroke-miterlimit="10"/>
<path d="M84.0878 18.3998V9.99982H85.1631V18.3998H84.0878Z" fill="#EDEDED" stroke="#EDEDED" stroke-width="0.280584" stroke-miterlimit="10"/>
<path d="M89.9393 18.3998H88.864V11.0358H86.5178V9.99982H92.2716V11.0358H89.9254V18.3998H89.9393Z" fill="#EDEDED" stroke="#EDEDED" stroke-width="0.280584" stroke-miterlimit="10"/>
<path d="M103.179 17.3067C102.355 18.1607 101.336 18.5807 100.107 18.5807C98.8777 18.5807 97.8582 18.1607 97.0343 17.3067C96.2103 16.4527 95.8053 15.4167 95.8053 14.1987C95.8053 12.9807 96.2103 11.9307 97.0343 11.0907C97.8582 10.2367 98.8777 9.81668 100.107 9.81668C101.322 9.81668 102.341 10.2367 103.179 11.0907C104.003 11.9447 104.422 12.9807 104.422 14.1987C104.408 15.4307 104.003 16.4667 103.179 17.3067ZM97.8303 16.6067C98.4448 17.2367 99.2129 17.5447 100.107 17.5447C101 17.5447 101.769 17.2367 102.383 16.6067C102.998 15.9767 103.319 15.1787 103.319 14.1987C103.319 13.2187 103.011 12.4207 102.383 11.7907C101.769 11.1607 101 10.8387 100.107 10.8387C99.2129 10.8387 98.4448 11.1467 97.8303 11.7767C97.2158 12.4207 96.8946 13.2187 96.8946 14.1987C96.8946 15.1787 97.2158 15.9767 97.8303 16.6067Z" fill="#EDEDED" stroke="#EDEDED" stroke-width="0.280584" stroke-miterlimit="10"/>
<path d="M105.929 18.3998V9.99982H107.242L111.32 16.5378H111.362L111.32 14.9138V9.99982H112.395V18.3998H111.278L107.019 11.5538H106.977L107.019 13.1778V18.3998H105.929Z" fill="#EDEDED" stroke="#EDEDED" stroke-width="0.280584" stroke-miterlimit="10"/>
<mask id="path-10-inside-1_2_74" fill="white">
<path d="M95.5379 30.6481C92.2561 30.6481 89.5747 33.1541 89.5747 36.5981C89.5747 40.0281 92.2561 42.5481 95.5379 42.5481C98.8198 42.5481 101.501 40.0281 101.501 36.5981C101.501 33.1541 98.8198 30.6481 95.5379 30.6481ZM95.5379 40.2101C93.7364 40.2101 92.1862 38.7261 92.1862 36.5981C92.1862 34.4561 93.7364 32.9861 95.5379 32.9861C97.3395 32.9861 98.8897 34.4561 98.8897 36.5981C98.8897 38.7261 97.3255 40.2101 95.5379 40.2101ZM82.5222 30.6481C79.2403 30.6481 76.5589 33.1541 76.5589 36.5981C76.5589 40.0281 79.2403 42.5481 82.5222 42.5481C85.804 42.5481 88.4854 40.0281 88.4854 36.5981C88.4854 33.1541 85.804 30.6481 82.5222 30.6481ZM82.5222 40.2101C80.7206 40.2101 79.1705 38.7261 79.1705 36.5981C79.1705 34.4561 80.7206 32.9861 82.5222 32.9861C84.3237 32.9861 85.8739 34.4561 85.8739 36.5981C85.8739 38.7261 84.3237 40.2101 82.5222 40.2101ZM67.0485 32.4821V35.0021H73.0815C72.9 36.4161 72.4252 37.4661 71.7129 38.1801C70.8331 39.0621 69.4645 40.0281 67.0624 40.0281C63.3476 40.0281 60.4428 37.0321 60.4428 33.3081C60.4428 29.5841 63.3476 26.5881 67.0624 26.5881C69.0595 26.5881 70.5259 27.3721 71.6012 28.3941L73.3748 26.6161C71.8665 25.1741 69.8695 24.0681 67.0485 24.0681C61.9651 24.0681 57.6916 28.2121 57.6916 33.3221C57.6916 38.4181 61.9651 42.5761 67.0485 42.5761C69.7997 42.5761 71.8665 41.6801 73.4865 39.9861C75.1484 38.3201 75.6651 35.9681 75.6651 34.0781C75.6651 33.4901 75.6232 32.9441 75.5255 32.4961H67.0485V32.4821ZM130.326 34.4421C129.837 33.1121 128.329 30.6481 125.242 30.6481C122.184 30.6481 119.642 33.0561 119.642 36.5981C119.642 39.9301 122.156 42.5481 125.536 42.5481C128.259 42.5481 129.837 40.8821 130.479 39.9161L128.454 38.5581C127.784 39.5521 126.862 40.2101 125.536 40.2101C124.209 40.2101 123.259 39.5941 122.659 38.4041L130.605 35.1141L130.326 34.4421ZM122.226 36.4301C122.156 34.1341 124 32.9581 125.326 32.9581C126.36 32.9581 127.239 33.4761 127.533 34.2181L122.226 36.4301ZM115.774 42.1981H118.385V24.6981H115.774V42.1981ZM111.5 31.9781H111.403C110.816 31.2781 109.699 30.6481 108.274 30.6481C105.3 30.6481 102.577 33.2661 102.577 36.6261C102.577 39.9581 105.3 42.5621 108.274 42.5621C109.685 42.5621 110.816 41.9321 111.403 41.2041H111.486V42.0581C111.486 44.3401 110.271 45.5581 108.316 45.5581C106.724 45.5581 105.733 44.4101 105.328 43.4441L103.051 44.3961C103.708 45.9781 105.439 47.9101 108.316 47.9101C111.375 47.9101 113.958 46.1041 113.958 41.7081V31.0121H111.486V31.9781H111.5ZM108.498 40.2101C106.696 40.2101 105.188 38.6981 105.188 36.6261C105.188 34.5261 106.696 33.0001 108.498 33.0001C110.271 33.0001 111.668 34.5401 111.668 36.6261C111.682 38.6981 110.285 40.2101 108.498 40.2101ZM142.56 24.6981H136.317V42.1981H138.929V35.5621H142.574C145.464 35.5621 148.299 33.4621 148.299 30.1301C148.299 26.7981 145.436 24.6981 142.56 24.6981ZM142.615 33.1261H138.915V27.1201H142.615C144.571 27.1201 145.674 28.7441 145.674 30.1161C145.674 31.4881 144.571 33.1261 142.615 33.1261ZM158.732 30.6201C156.846 30.6201 154.891 31.4601 154.081 33.2941L156.399 34.2601C156.888 33.2941 157.81 32.9721 158.773 32.9721C160.128 32.9721 161.497 33.7841 161.511 35.2261V35.4081C161.036 35.1421 160.03 34.7361 158.787 34.7361C156.288 34.7361 153.76 36.1081 153.76 38.6701C153.76 41.0081 155.799 42.5201 158.089 42.5201C159.835 42.5201 160.812 41.7361 161.413 40.8121H161.497V42.1701H164.01V35.4641C164.024 32.3561 161.706 30.6201 158.732 30.6201ZM158.41 40.2101C157.558 40.2101 156.371 39.7761 156.371 38.7261C156.371 37.3821 157.852 36.8641 159.137 36.8641C160.282 36.8641 160.826 37.1161 161.511 37.4521C161.315 39.0621 159.919 40.2101 158.41 40.2101ZM173.186 30.9981L170.197 38.5861H170.113L167.013 30.9981H164.206L168.856 41.6101L166.203 47.5041H168.926L176.091 30.9981H173.186ZM149.724 42.1981H152.335V24.6981H149.724V42.1981Z"/>
</mask>
<path d="M95.5379 30.6481C92.2561 30.6481 89.5747 33.1541 89.5747 36.5981C89.5747 40.0281 92.2561 42.5481 95.5379 42.5481C98.8198 42.5481 101.501 40.0281 101.501 36.5981C101.501 33.1541 98.8198 30.6481 95.5379 30.6481ZM95.5379 40.2101C93.7364 40.2101 92.1862 38.7261 92.1862 36.5981C92.1862 34.4561 93.7364 32.9861 95.5379 32.9861C97.3395 32.9861 98.8897 34.4561 98.8897 36.5981C98.8897 38.7261 97.3255 40.2101 95.5379 40.2101ZM82.5222 30.6481C79.2403 30.6481 76.5589 33.1541 76.5589 36.5981C76.5589 40.0281 79.2403 42.5481 82.5222 42.5481C85.804 42.5481 88.4854 40.0281 88.4854 36.5981C88.4854 33.1541 85.804 30.6481 82.5222 30.6481ZM82.5222 40.2101C80.7206 40.2101 79.1705 38.7261 79.1705 36.5981C79.1705 34.4561 80.7206 32.9861 82.5222 32.9861C84.3237 32.9861 85.8739 34.4561 85.8739 36.5981C85.8739 38.7261 84.3237 40.2101 82.5222 40.2101ZM67.0485 32.4821V35.0021H73.0815C72.9 36.4161 72.4252 37.4661 71.7129 38.1801C70.8331 39.0621 69.4645 40.0281 67.0624 40.0281C63.3476 40.0281 60.4428 37.0321 60.4428 33.3081C60.4428 29.5841 63.3476 26.5881 67.0624 26.5881C69.0595 26.5881 70.5259 27.3721 71.6012 28.3941L73.3748 26.6161C71.8665 25.1741 69.8695 24.0681 67.0485 24.0681C61.9651 24.0681 57.6916 28.2121 57.6916 33.3221C57.6916 38.4181 61.9651 42.5761 67.0485 42.5761C69.7997 42.5761 71.8665 41.6801 73.4865 39.9861C75.1484 38.3201 75.6651 35.9681 75.6651 34.0781C75.6651 33.4901 75.6232 32.9441 75.5255 32.4961H67.0485V32.4821ZM130.326 34.4421C129.837 33.1121 128.329 30.6481 125.242 30.6481C122.184 30.6481 119.642 33.0561 119.642 36.5981C119.642 39.9301 122.156 42.5481 125.536 42.5481C128.259 42.5481 129.837 40.8821 130.479 39.9161L128.454 38.5581C127.784 39.5521 126.862 40.2101 125.536 40.2101C124.209 40.2101 123.259 39.5941 122.659 38.4041L130.605 35.1141L130.326 34.4421ZM122.226 36.4301C122.156 34.1341 124 32.9581 125.326 32.9581C126.36 32.9581 127.239 33.4761 127.533 34.2181L122.226 36.4301ZM115.774 42.1981H118.385V24.6981H115.774V42.1981ZM111.5 31.9781H111.403C110.816 31.2781 109.699 30.6481 108.274 30.6481C105.3 30.6481 102.577 33.2661 102.577 36.6261C102.577 39.9581 105.3 42.5621 108.274 42.5621C109.685 42.5621 110.816 41.9321 111.403 41.2041H111.486V42.0581C111.486 44.3401 110.271 45.5581 108.316 45.5581C106.724 45.5581 105.733 44.4101 105.328 43.4441L103.051 44.3961C103.708 45.9781 105.439 47.9101 108.316 47.9101C111.375 47.9101 113.958 46.1041 113.958 41.7081V31.0121H111.486V31.9781H111.5ZM108.498 40.2101C106.696 40.2101 105.188 38.6981 105.188 36.6261C105.188 34.5261 106.696 33.0001 108.498 33.0001C110.271 33.0001 111.668 34.5401 111.668 36.6261C111.682 38.6981 110.285 40.2101 108.498 40.2101ZM142.56 24.6981H136.317V42.1981H138.929V35.5621H142.574C145.464 35.5621 148.299 33.4621 148.299 30.1301C148.299 26.7981 145.436 24.6981 142.56 24.6981ZM142.615 33.1261H138.915V27.1201H142.615C144.571 27.1201 145.674 28.7441 145.674 30.1161C145.674 31.4881 144.571 33.1261 142.615 33.1261ZM158.732 30.6201C156.846 30.6201 154.891 31.4601 154.081 33.2941L156.399 34.2601C156.888 33.2941 157.81 32.9721 158.773 32.9721C160.128 32.9721 161.497 33.7841 161.511 35.2261V35.4081C161.036 35.1421 160.03 34.7361 158.787 34.7361C156.288 34.7361 153.76 36.1081 153.76 38.6701C153.76 41.0081 155.799 42.5201 158.089 42.5201C159.835 42.5201 160.812 41.7361 161.413 40.8121H161.497V42.1701H164.01V35.4641C164.024 32.3561 161.706 30.6201 158.732 30.6201ZM158.41 40.2101C157.558 40.2101 156.371 39.7761 156.371 38.7261C156.371 37.3821 157.852 36.8641 159.137 36.8641C160.282 36.8641 160.826 37.1161 161.511 37.4521C161.315 39.0621 159.919 40.2101 158.41 40.2101ZM173.186 30.9981L170.197 38.5861H170.113L167.013 30.9981H164.206L168.856 41.6101L166.203 47.5041H168.926L176.091 30.9981H173.186ZM149.724 42.1981H152.335V24.6981H149.724V42.1981Z" fill="#EDEDED" stroke="#EDEDED" stroke-width="2.80584" mask="url(#path-10-inside-1_2_74)"/>
<path d="M15.3244 12.7021L15.3244 12.7021L31.0208 27.9302C31.0294 27.9385 31.0363 27.9485 31.0411 27.9597C31.0457 27.9705 31.0482 27.982 31.0485 27.9938C31.0483 28.0065 31.0458 28.019 31.041 28.0307C31.0361 28.0427 31.029 28.0535 31.0201 28.0625C31.02 28.0627 31.0198 28.0628 31.0197 28.063L15.5704 43.5505C15.5702 43.5507 15.5699 43.551 15.5697 43.5512C15.56 43.5606 15.5486 43.5676 15.5362 43.572C15.5234 43.5765 15.51 43.578 15.4967 43.5766C15.4833 43.5752 15.4704 43.5708 15.4588 43.5637C15.4472 43.5566 15.4372 43.5469 15.4295 43.5352L14.8422 43.9187L15.4308 43.5371C15.1741 43.1413 15.0473 42.714 15.0473 42.2562V13.4934C15.0497 13.239 15.0933 12.9866 15.1764 12.7462L15.1764 12.7462L15.1789 12.7387C15.1838 12.7239 15.1924 12.7108 15.2035 12.7005C15.2147 12.6903 15.2281 12.6831 15.2424 12.6796C15.2568 12.6761 15.2717 12.6763 15.286 12.6801C15.3003 12.684 15.3135 12.6915 15.3244 12.7021Z" fill="#EDEDED" stroke="#EDEDED" stroke-width="1.40292"/>
<path d="M33.1372 25.8236L33.1342 25.8207L18.4341 11.558C18.434 11.558 18.434 11.5579 18.4339 11.5578C18.4181 11.5424 18.408 11.5215 18.4059 11.4988C18.4038 11.4769 18.4094 11.455 18.4214 11.437C18.4343 11.4199 18.4524 11.4079 18.4725 11.4029C18.4911 11.3982 18.5106 11.3996 18.5284 11.4068L37.2274 21.6722C37.2277 21.6724 37.228 21.6726 37.2283 21.6727C37.2403 21.6796 37.2507 21.6891 37.2587 21.7008L37.8371 21.3038L37.2587 21.7008C37.267 21.7128 37.2724 21.7267 37.2745 21.7413C37.2766 21.756 37.2752 21.7709 37.2706 21.7849C37.2661 21.7985 37.2586 21.8109 37.2488 21.821C37.2486 21.8212 37.2484 21.8214 37.2482 21.8217L33.2589 25.8208L33.257 25.8227C33.2409 25.839 33.2194 25.8479 33.1972 25.8481C33.1751 25.8482 33.1535 25.8396 33.1372 25.8236Z" fill="#EDEDED" stroke="#EDEDED" stroke-width="1.40292"/>
<path d="M44.7415 25.7964L44.7416 25.7965C45.5125 26.2197 45.9681 26.99 45.9681 27.8726C45.9681 28.7552 45.5125 29.5255 44.7416 29.9487C44.7416 29.9487 44.7416 29.9487 44.7416 29.9487L40.1072 32.4926C40.107 32.4927 40.1068 32.4928 40.1066 32.493C40.0894 32.5021 40.0699 32.5056 40.0509 32.5031C40.0318 32.5005 40.0138 32.492 39.9995 32.4784C39.9993 32.4783 39.9991 32.4781 39.9989 32.4779L35.4076 28.0225C35.4076 28.0225 35.4076 28.0225 35.4075 28.0224C35.399 28.0142 35.3922 28.0042 35.3874 27.993C35.3826 27.9818 35.3801 27.9697 35.38 27.9574C35.3799 27.9451 35.3822 27.933 35.3868 27.9217C35.3914 27.9105 35.3981 27.9004 35.4064 27.892C35.4065 27.8919 35.4065 27.8919 35.4066 27.8918L40.0121 23.2749C40.0123 23.2747 40.0125 23.2745 40.0126 23.2743C40.027 23.2603 40.0452 23.2514 40.0645 23.2487C40.0837 23.2459 40.1035 23.2493 40.1209 23.2586C40.1211 23.2587 40.1213 23.2588 40.1215 23.259L44.7415 25.7964Z" fill="#EDEDED" stroke="#EDEDED" stroke-width="1.40292"/>
<path d="M19.9069 44.1701L20.0464 43.4826C20.0262 43.4785 20.0078 43.4671 19.995 43.4499C19.9821 43.4327 19.9758 43.4111 19.9776 43.3891C19.9794 43.3672 19.9892 43.3471 20.0045 43.3324L20.0107 43.3265L20.0168 43.3204L33.1699 30.1347C33.1865 30.1181 33.2087 30.1089 33.2314 30.1087C33.2542 30.1085 33.2765 30.1173 33.2934 30.1337L37.2201 33.9417L37.2218 33.9434C37.2318 33.953 37.2395 33.965 37.2442 33.9784C37.2489 33.9919 37.2504 34.0063 37.2485 34.0205C37.2466 34.0347 37.2414 34.0481 37.2334 34.0597L37.8118 34.4566L37.2334 34.0597C37.2255 34.0713 37.215 34.0807 37.203 34.0872L37.2017 34.0879L20.1217 43.4637L20.1136 43.4681L20.1056 43.4728C20.0876 43.4833 20.0666 43.4867 20.0464 43.4826L19.9069 44.1701Z" fill="#EDEDED" stroke="#EDEDED" stroke-width="1.40292"/>
</svg>
