<svg width="56" height="23" viewBox="0 0 56 23" fill="none" xmlns="http://www.w3.org/2000/svg">
<symbol id="googlePay" viewBox="0 0 56 23">
    <path fill-rule="evenodd" clip-rule="evenodd" d="M9.92713 4.42803C11.209 4.40724 12.4478 4.88551 13.3762 5.75967L15.9413 3.22472C14.3136 1.715 12.1586 0.886191 9.92713 0.911705C8.26186 0.911687 6.62928 1.36905 5.21151 2.2328C3.79374 3.09653 2.64638 4.33269 1.89749 5.80346L1.89757 5.80484C1.26811 7.04161 0.940308 8.40692 0.940308 9.79146C0.940308 11.176 1.26811 12.5413 1.89757 13.7781L1.89749 13.7813C2.64638 15.252 3.79374 16.4882 5.21151 17.3519C6.62928 18.2157 8.26186 18.673 9.92713 18.673V18.67C12.3533 18.67 14.3946 17.8834 15.8818 16.5261L15.8956 16.526C17.5919 14.9799 18.5691 12.6956 18.5691 9.99308H18.5584C18.56 9.38595 18.5089 8.77981 18.4057 8.18132H9.92721V11.6071H14.7902C14.6911 12.1535 14.4808 12.6744 14.1722 13.1382C13.8636 13.6019 13.463 13.9989 12.9946 14.3051V14.3157L12.9808 14.3052C12.1746 14.8427 11.1364 15.1552 9.92713 15.1552C7.58342 15.1552 5.59396 13.5941 4.88856 11.4909L4.88247 11.4908C4.50589 10.3885 4.50589 9.19444 4.88247 8.09218V8.0908C5.59396 5.98614 7.58342 4.42652 9.92097 4.42652L9.92713 4.42803ZM26.6796 9.4433V4.04878V4.04728H30.0387C30.579 4.04305 31.1086 4.19697 31.5607 4.48968C32.0129 4.7824 32.3673 5.20081 32.5795 5.69227C32.7917 6.18372 32.8522 6.72626 32.7532 7.2516C32.6543 7.77695 32.4004 8.26162 32.0236 8.64461C31.7666 8.90635 31.4576 9.1125 31.1159 9.24998C30.7742 9.38747 30.4074 9.4533 30.0387 9.4433H26.6796ZM26.6796 17.6007V11.3472H30.0005C31.3695 11.3482 32.5198 10.9093 33.4512 10.0306C33.9063 9.61338 34.2695 9.1077 34.5179 8.54524C34.7662 7.98276 34.8944 7.37564 34.8944 6.7619C34.8944 6.14816 34.7662 5.54103 34.5179 4.97855C34.2695 4.41608 33.9063 3.91039 33.4512 3.49319C32.9936 3.05629 32.4531 2.7132 31.8609 2.48363C31.2687 2.25405 30.6364 2.14253 30.0005 2.1555H24.6703V17.6007H26.6796ZM37.1037 15.091C36.9876 14.8654 36.9278 14.6156 36.9293 14.3624C36.9293 13.7887 37.2026 13.3076 37.7492 12.9191C38.2958 12.5306 38.9762 12.3363 39.7906 12.3363C40.9123 12.3353 41.7862 12.5799 42.4121 13.07C42.4122 13.4821 42.3236 13.8895 42.1522 14.2651C41.9809 14.6408 41.7306 14.976 41.4181 15.2487C40.818 15.8412 40.005 16.1746 39.1569 16.1757C38.5922 16.1862 38.0411 16.0038 37.5965 15.6594C37.3887 15.5115 37.2198 15.3166 37.1037 15.091ZM43.0366 7.86123C42.1816 7.07714 41.011 6.68511 39.5249 6.68511C37.6174 6.68511 36.1771 7.37458 35.2039 8.75354L36.9751 9.85419C37.6316 8.91911 38.5197 8.45157 39.6394 8.45157C40.3561 8.44168 41.0501 8.6994 41.5831 9.17326C41.8447 9.38722 42.055 9.65604 42.1986 9.96025C42.3423 10.2645 42.4157 10.5964 42.4137 10.9322V11.3851C41.6411 10.9543 40.6578 10.7389 39.4638 10.7389C38.0611 10.7379 36.9415 11.0615 36.1048 11.7097C35.2681 12.3579 34.8497 13.2276 34.8497 14.3187C34.8406 14.8109 34.9428 15.299 35.1488 15.7473C35.3549 16.1955 35.6596 16.5925 36.0407 16.9095C36.8331 17.601 37.8225 17.9452 39.0012 17.9452C40.3845 17.9452 41.491 17.3413 42.3205 16.1334H42.4091V17.601H44.3237V11.0862C44.3207 9.72031 43.8917 8.64532 43.0366 7.86123ZM55.3627 7.02624L48.6553 22.2601H46.5803L49.0706 16.9305L44.6581 7.02624H46.843L50.0325 14.622H50.0753L53.1778 7.02624H55.3627Z" />
</symbol>
</svg>
