<svg width="175" height="52" viewBox="0 0 94 28" fill="none" xmlns="http://www.w3.org/2000/svg">
<rect x="0.746826" y="0.5" width="92.4865" height="26.7683" rx="4.5" stroke="#FF267E"/>
<path d="M33.0844 7.10914C33.0844 7.69228 32.9113 8.1574 32.565 8.49756C32.1772 8.90714 31.6648 9.1154 31.0416 9.1154C30.4391 9.1154 29.9336 8.90714 29.5111 8.49062C29.0887 8.07409 28.881 7.55344 28.881 6.94254C28.881 6.32469 29.0887 5.81098 29.5111 5.39445C29.9336 4.97793 30.4391 4.76967 31.0416 4.76967C31.3393 4.76967 31.6233 4.82521 31.8933 4.94322C32.1634 5.06124 32.3781 5.21396 32.5443 5.40834L32.1772 5.77627C31.9002 5.44999 31.5263 5.28338 31.0416 5.28338C30.6053 5.28338 30.2244 5.43611 29.9059 5.7485C29.5873 6.05395 29.4281 6.45659 29.4281 6.94948C29.4281 7.44236 29.5873 7.845 29.9059 8.15045C30.2244 8.45591 30.6053 8.61557 31.0416 8.61557C31.5055 8.61557 31.8933 8.46285 32.2049 8.15045C32.4058 7.94913 32.5235 7.66451 32.5512 7.30352H31.0416V6.79675H33.0567C33.0706 6.90782 33.0844 7.01196 33.0844 7.10914Z" fill="#FF267E" stroke="#FF267E" stroke-width="0.2" stroke-miterlimit="10"/>
<path d="M36.2771 5.37355H34.3866V6.69254H36.0901V7.19237H34.3866V8.51136H36.2771V9.02507H33.8534V4.85983H36.2771V5.37355Z" fill="#FF267E" stroke="#FF267E" stroke-width="0.2" stroke-miterlimit="10"/>
<path d="M38.5275 9.02507H37.9943V5.37355H36.8309V4.85983H39.684V5.37355H38.5206V9.02507H38.5275Z" fill="#FF267E" stroke="#FF267E" stroke-width="0.2" stroke-miterlimit="10"/>
<path d="M41.7546 9.02507V4.85983H42.2879V9.02507H41.7546Z" fill="#FF267E" stroke="#FF267E" stroke-width="0.2" stroke-miterlimit="10"/>
<path d="M44.656 9.02507H44.1227V5.37355H42.9594V4.85983H45.8124V5.37355H44.649V9.02507H44.656Z" fill="#FF267E" stroke="#FF267E" stroke-width="0.2" stroke-miterlimit="10"/>
<path d="M51.2209 8.48314C50.8124 8.90661 50.3068 9.11487 49.6975 9.11487C49.0881 9.11487 48.5825 8.90661 48.174 8.48314C47.7654 8.05967 47.5646 7.54596 47.5646 6.942C47.5646 6.33804 47.7654 5.81739 48.174 5.40086C48.5825 4.9774 49.0881 4.76913 49.6975 4.76913C50.2999 4.76913 50.8054 4.9774 51.2209 5.40086C51.6295 5.82433 51.8373 6.33804 51.8373 6.942C51.8303 7.5529 51.6295 8.06662 51.2209 8.48314ZM48.5687 8.13604C48.8734 8.44843 49.2543 8.60115 49.6975 8.60115C50.1406 8.60115 50.5215 8.44843 50.8262 8.13604C51.1309 7.82364 51.2902 7.42795 51.2902 6.942C51.2902 6.45606 51.1378 6.06036 50.8262 5.74797C50.5215 5.43557 50.1406 5.27591 49.6975 5.27591C49.2543 5.27591 48.8734 5.42863 48.5687 5.74102C48.264 6.06036 48.1047 6.45606 48.1047 6.942C48.1047 7.42795 48.264 7.82364 48.5687 8.13604Z" fill="#FF267E" stroke="#FF267E" stroke-width="0.2" stroke-miterlimit="10"/>
<path d="M52.5848 9.02507V4.85983H53.2358L55.2579 8.10178H55.2786L55.2579 7.2965V4.85983H55.7911V9.02507H55.2371L53.125 5.6304H53.1042L53.125 6.43568V9.02507H52.5848Z" fill="#FF267E" stroke="#FF267E" stroke-width="0.2" stroke-miterlimit="10"/>
<path d="M47.4322 15.0986C45.8048 15.0986 44.4753 16.3412 44.4753 18.049C44.4753 19.7498 45.8048 20.9994 47.4322 20.9994C49.0595 20.9994 50.3891 19.7498 50.3891 18.049C50.3891 16.3412 49.0595 15.0986 47.4322 15.0986ZM47.4322 19.84C46.5389 19.84 45.7702 19.1042 45.7702 18.049C45.7702 16.9868 46.5389 16.2579 47.4322 16.2579C48.3255 16.2579 49.0942 16.9868 49.0942 18.049C49.0942 19.1042 48.3186 19.84 47.4322 19.84ZM40.9782 15.0986C39.3508 15.0986 38.0212 16.3412 38.0212 18.049C38.0212 19.7498 39.3508 20.9994 40.9782 20.9994C42.6055 20.9994 43.9351 19.7498 43.9351 18.049C43.9351 16.3412 42.6055 15.0986 40.9782 15.0986ZM40.9782 19.84C40.0848 19.84 39.3162 19.1042 39.3162 18.049C39.3162 16.9868 40.0848 16.2579 40.9782 16.2579C41.8715 16.2579 42.6401 16.9868 42.6401 18.049C42.6401 19.1042 41.8715 19.84 40.9782 19.84ZM33.3053 16.008V17.2576H36.2969C36.2069 17.9587 35.9714 18.4794 35.6183 18.8334C35.182 19.2708 34.5034 19.7498 33.3123 19.7498C31.4702 19.7498 30.0299 18.2642 30.0299 16.4176C30.0299 14.571 31.4702 13.0854 33.3123 13.0854C34.3025 13.0854 35.0297 13.4742 35.5629 13.9809L36.4423 13.0993C35.6944 12.3843 34.7042 11.8358 33.3053 11.8358C30.7847 11.8358 28.6656 13.8907 28.6656 16.4245C28.6656 18.9514 30.7847 21.0132 33.3053 21.0132C34.6696 21.0132 35.6944 20.5689 36.4977 19.729C37.3218 18.9029 37.578 17.7366 37.578 16.7994C37.578 16.5078 37.5573 16.2371 37.5088 16.015H33.3053V16.008ZM64.6822 16.9799C64.4398 16.3204 63.6919 15.0986 62.1615 15.0986C60.645 15.0986 59.3846 16.2926 59.3846 18.049C59.3846 19.7012 60.6311 20.9994 62.3069 20.9994C63.6573 20.9994 64.4398 20.1733 64.7584 19.6942L63.7542 19.0209C63.4218 19.5138 62.9648 19.84 62.3069 19.84C61.6491 19.84 61.1782 19.5346 60.8804 18.9445L64.8207 17.3131L64.6822 16.9799ZM60.6657 17.9657C60.6311 16.8272 61.5452 16.244 62.2031 16.244C62.7155 16.244 63.1518 16.5009 63.2972 16.8688L60.6657 17.9657ZM57.4664 20.8258H58.7614V12.1482H57.4664V20.8258ZM55.3474 15.7581H55.2989C55.0081 15.411 54.4541 15.0986 53.7477 15.0986C52.2727 15.0986 50.9224 16.3968 50.9224 18.0629C50.9224 19.7151 52.2727 21.0063 53.7477 21.0063C54.4471 21.0063 55.0081 20.6939 55.2989 20.3329H55.3405V20.7564C55.3405 21.8879 54.738 22.4919 53.7685 22.4919C52.9791 22.4919 52.4874 21.9227 52.2866 21.4436L51.1578 21.9157C51.4833 22.7002 52.342 23.6582 53.7685 23.6582C55.2851 23.6582 56.5662 22.7626 56.5662 20.5828V15.2791H55.3405V15.7581H55.3474ZM53.8585 19.84C52.9652 19.84 52.2173 19.0903 52.2173 18.0629C52.2173 17.0216 52.9652 16.2649 53.8585 16.2649C54.738 16.2649 55.4305 17.0285 55.4305 18.0629C55.4374 19.0903 54.7449 19.84 53.8585 19.84ZM70.7484 12.1482H67.653V20.8258H68.9479V17.5353H70.7553C72.1888 17.5353 73.5946 16.494 73.5946 14.8417C73.5946 13.1895 72.1749 12.1482 70.7484 12.1482ZM70.7761 16.3273H68.941V13.3492H70.7761C71.7456 13.3492 72.2927 14.1545 72.2927 14.8348C72.2927 15.5151 71.7456 16.3273 70.7761 16.3273ZM78.7675 15.0847C77.8326 15.0847 76.8631 15.5012 76.4615 16.4107L77.611 16.8897C77.8534 16.4107 78.3104 16.251 78.7882 16.251C79.46 16.251 80.1386 16.6536 80.1455 17.3687V17.4589C79.9101 17.327 79.4115 17.1257 78.7952 17.1257C77.5556 17.1257 76.3022 17.806 76.3022 19.0764C76.3022 20.2357 77.3132 20.9855 78.4489 20.9855C79.3145 20.9855 79.7993 20.5967 80.0971 20.1385H80.1386V20.8119H81.3851V17.4867C81.392 15.9455 80.2425 15.0847 78.7675 15.0847ZM78.6082 19.84C78.1858 19.84 77.5972 19.6248 77.5972 19.1042C77.5972 18.4377 78.3312 18.1809 78.9683 18.1809C79.5361 18.1809 79.8062 18.3058 80.1455 18.4724C80.0486 19.2708 79.3561 19.84 78.6082 19.84ZM85.9348 15.2722L84.4528 19.0348H84.4113L82.874 15.2722H81.482L83.788 20.5342L82.4723 23.4568H83.8227L87.3752 15.2722H85.9348ZM74.3009 20.8258H75.5959V12.1482H74.3009V20.8258Z" fill="#FF267E"/>
<path d="M15.8019 13.7804C15.8015 13.7283 15.7908 13.6768 15.7703 13.6289C15.7499 13.581 15.7201 13.5377 15.6828 13.5014L7.89934 5.95019C7.85173 5.904 7.79322 5.87066 7.72927 5.85329C7.66532 5.83592 7.59802 5.83508 7.53366 5.85086C7.4693 5.86664 7.40998 5.89851 7.36125 5.9435C7.31251 5.9885 7.27595 6.04514 7.25497 6.10814C7.20133 6.26339 7.17327 6.42636 7.17188 6.59066V20.8546C7.17188 21.1501 7.25497 21.4275 7.41802 21.679C7.44996 21.7279 7.49235 21.7691 7.54211 21.7996C7.59187 21.83 7.64777 21.849 7.70576 21.8552C7.76376 21.8614 7.82239 21.8545 7.87742 21.8352C7.93246 21.8159 7.98252 21.7845 8.02398 21.7434L15.6867 14.0617C15.7234 14.0247 15.7525 13.9808 15.7723 13.9326C15.792 13.8843 15.8021 13.8326 15.8019 13.7804Z" fill="#FF267E"/>
<path d="M16.2462 12.9544C16.3198 13.0267 16.419 13.0669 16.5221 13.0662C16.6252 13.0654 16.7239 13.0238 16.7965 12.9505L18.7759 10.9662C18.8186 10.9229 18.8507 10.8703 18.8698 10.8125C18.8889 10.7547 18.8943 10.6932 18.8858 10.6329C18.8772 10.5727 18.8548 10.5152 18.8204 10.465C18.7859 10.4149 18.7404 10.3734 18.6873 10.3438L9.40422 5.24756C9.3204 5.20581 9.22448 5.19538 9.13368 5.21814C9.04288 5.24089 8.96315 5.29535 8.90879 5.37172C8.85491 5.44853 8.83012 5.54209 8.83889 5.63557C8.84765 5.72906 8.88939 5.81634 8.95661 5.88174L16.2462 12.9544Z" fill="#FF267E"/>
<path d="M22.4113 12.3879L20.1192 11.129C20.0447 11.0885 19.9592 11.0731 19.8753 11.0852C19.7915 11.0972 19.7137 11.136 19.6535 11.1958L17.3684 13.4865C17.3318 13.5234 17.3028 13.5672 17.2831 13.6154C17.2635 13.6636 17.2536 13.7152 17.254 13.7673C17.2545 13.8194 17.2652 13.8708 17.2857 13.9187C17.3061 13.9665 17.3358 14.0098 17.3731 14.0461L19.6512 16.2567C19.7115 16.3147 19.7887 16.3519 19.8715 16.3631C19.9544 16.3742 20.0386 16.3587 20.1121 16.3187L22.4113 15.0567C22.9052 14.7856 23.1999 14.2865 23.1999 13.7223C23.1999 13.1581 22.9052 12.659 22.4113 12.3879Z" fill="#FF267E"/>
<path d="M16.8093 14.5937C16.7353 14.5221 16.6363 14.4825 16.5335 14.4834C16.4307 14.4842 16.3324 14.5256 16.2597 14.5984L9.73761 21.1367C9.66834 21.2028 9.62571 21.2921 9.61779 21.3877C9.60988 21.4833 9.63724 21.5784 9.69467 21.6551C9.75211 21.7318 9.83563 21.7846 9.92938 21.8037C10.0231 21.8227 10.1206 21.8065 10.2032 21.7583L18.6726 17.1092C18.7266 17.0797 18.7729 17.0379 18.8077 16.9871C18.8426 16.9364 18.865 16.8781 18.8732 16.817C18.8813 16.7559 18.875 16.6937 18.8548 16.6356C18.8345 16.5774 18.8008 16.5248 18.7565 16.4821L16.8093 14.5937Z" fill="#FF267E"/>
</svg>
