<svg width="21" height="13" viewBox="0 0 21 13" fill="none" xmlns="http://www.w3.org/2000/svg">
<symbol id="mastercard" viewBox="0 0 21 13">
    <path fill-rule="evenodd" clip-rule="evenodd" d="M6.23683 12.3929C7.59707 12.3929 8.85284 11.9567 9.86402 11.2204C8.58132 10.0337 7.78171 8.35778 7.78171 6.50008C7.78171 4.64223 8.58132 2.96626 9.86402 1.77974C8.85284 1.04329 7.59707 0.607147 6.23683 0.607147C2.89096 0.607147 0.178589 3.24551 0.178589 6.50008C0.178589 9.7545 2.89096 12.3929 6.23683 12.3929ZM14.4776 0.607147C13.1173 0.607147 11.8616 1.04329 10.8505 1.77974C12.133 2.96626 12.9326 4.64223 12.9326 6.50008C12.9326 8.35778 12.133 10.0337 10.8505 11.2204C11.8616 11.9567 13.1173 12.3929 14.4776 12.3929C17.8234 12.3929 20.5357 9.7545 20.5357 6.50008C20.5357 3.24551 17.8234 0.607147 14.4776 0.607147ZM12.2949 6.50008C12.2949 4.79337 11.549 3.25611 10.3572 2.17999C9.1653 3.25611 8.4194 4.79337 8.4194 6.50008C8.4194 8.20664 9.1653 9.7439 10.3572 10.82C11.549 9.7439 12.2949 8.20664 12.2949 6.50008Z" />
</symbol>
</svg>
