<svg width="926" height="456" viewBox="0 0 926 456" fill="none" xmlns="http://www.w3.org/2000/svg">
<path d="M28.8385 157.584C44.356 153.331 77.7288 144.471 87.0803 143.059L732.383 69.2604L675.452 64.2613L854.979 51.4079L797.024 64.579L821.718 88.2022L879.592 82.0859L855.557 95.3772L819.019 136.069L809.544 134.06L805.076 168.473L53.1213 289.679L70.5934 280.654L65.7531 276.799C47.2687 279.48 8.56086 285.04 1.60458 285.828C-7.09077 286.813 29.2458 242.184 31.4603 238.41C33.232 235.391 51.9679 232.858 61.1145 231.968L77.7335 200.483L20.8026 195.484L80.3165 188.301L79.6184 178.252L50.7438 187.688L40.9392 167.222L65.7531 156.925L28.8385 157.584Z" fill="#FF267E"/>
<path d="M396.323 188.486C411.251 184.394 443.356 175.871 452.352 174.513L804.61 142.753L749.842 137.944L922.548 125.579L866.795 138.25L890.55 160.976L919 155L905.5 174.513L887.954 207.024L878.839 205.091L874.541 238.197L419.683 315.561L436.492 306.879L431.835 303.171C414.053 305.75 376.816 311.099 370.124 311.857C361.759 312.804 396.715 269.871 398.845 266.241C400.55 263.337 418.574 260.9 427.373 260.044L443.36 229.755L388.593 224.945L445.845 218.035L445.174 208.368L417.396 217.446L407.964 197.757L431.835 187.852L396.323 188.486Z" fill="#FF267E"/>
<path d="M112.496 189.206L119.079 235.137L154.303 230.089L152.932 220.523L128.542 224.018L127.216 214.769L150.276 211.464L148.905 201.897L125.845 205.202L124.692 197.157L149.083 193.661L147.721 184.158L112.496 189.206ZM197.322 177.049L186.489 178.602L189.004 196.151L170.125 198.856L167.61 181.308L156.777 182.86L163.359 228.791L174.193 227.238L171.496 208.423L190.375 205.717L193.072 224.533L203.905 222.98L197.322 177.049ZM220.172 183.473L225.393 219.9L236.29 218.339L231.069 181.911L245.83 179.795L244.468 170.292L204.112 176.076L205.474 185.579L220.172 183.473ZM277.083 213.333C291.147 211.317 299.551 200.479 297.499 186.162C295.447 171.844 284.338 163.803 270.273 165.818C256.146 167.843 247.806 178.672 249.858 192.989C251.91 207.307 262.955 215.357 277.083 213.333ZM275.803 204.4C269.087 205.362 262.723 201.102 261.324 191.346C259.926 181.59 264.838 175.713 271.554 174.751C278.269 173.788 284.634 178.049 286.032 187.805C287.43 197.561 282.518 203.438 275.803 204.4ZM342.598 156.229L331.765 157.781L334.28 175.33L315.4 178.036L312.885 160.487L302.052 162.04L308.635 207.97L319.468 206.418L316.772 187.602L335.651 184.896L338.347 203.712L349.181 202.159L342.598 156.229ZM370.669 199.08L364.086 153.149L353.252 154.702L359.835 200.632L370.669 199.08ZM378.096 186.507L379.713 197.783L384.274 197.13L380.197 207.929L386.405 207.04L391.524 196.737L389.817 184.827L378.096 186.507ZM421.695 154.591L426.916 191.018L437.813 189.457L432.592 153.029L447.353 150.913L445.991 141.41L405.636 147.194L406.998 156.697L421.695 154.591ZM478.606 184.451C492.671 182.435 501.074 171.597 499.022 157.279C496.97 142.962 485.861 134.92 471.797 136.936C457.669 138.961 449.329 149.79 451.381 164.107C453.433 178.425 464.479 186.475 478.606 184.451ZM477.326 175.518C470.611 176.48 464.246 172.22 462.848 162.464C461.449 152.708 466.361 146.831 473.077 145.869C479.792 144.906 486.157 149.167 487.555 158.923C488.954 168.679 484.042 174.555 477.326 175.518ZM516.86 148.71L515.716 140.728L540.487 137.178L539.18 128.055L503.576 133.158L510.158 179.088L530.368 176.192C541.518 174.594 548.376 169.667 546.815 158.77C545.262 147.937 537.387 145.768 526.807 147.285L516.86 148.71ZM529.187 167.051L519.684 168.413L518.013 156.756L527.516 155.394C532.141 154.731 534.767 156.359 535.32 160.224C535.874 164.088 533.812 166.388 529.187 167.051ZM567.119 170.925L560.536 124.994L549.703 126.547L556.285 172.477L567.119 170.925ZM599.897 136.809L598.753 128.827L623.524 125.277L622.216 116.154L586.612 121.257L593.195 167.188L613.404 164.291C624.554 162.693 631.413 157.766 629.851 146.87C628.298 136.036 620.423 133.868 609.843 135.384L599.897 136.809ZM612.223 155.15L602.721 156.512L601.05 144.855L610.553 143.493C615.178 142.83 617.803 144.458 618.357 148.323C618.911 152.187 616.848 154.487 612.223 155.15ZM639.85 161.341L644.981 160.606C652.077 159.589 656.067 156.302 657.992 149.884L669.513 109.376L657.73 111.064L652.021 135.287L638.407 113.834L626.687 115.513L648.451 147.372L647.375 149.336C646.588 150.613 644.108 150.904 642.714 151.104L638.47 151.712L639.85 161.341ZM705.267 151.126L716.1 149.573L709.517 103.642L677.271 108.264L679.043 123.785C680.251 134.474 681.089 144.828 675.197 145.672L673.803 145.872L675.174 155.438L678.405 154.975C690.062 153.305 691.35 140.189 689.878 125.853L688.905 116.359L700.055 114.761L705.267 151.126ZM747.92 145.853C761.984 143.837 770.387 133 768.335 118.682C766.283 104.364 755.174 96.3229 741.11 98.3386C726.982 100.363 718.642 111.192 720.694 125.51C722.746 139.827 733.792 147.878 747.92 145.853ZM746.639 136.92C739.924 137.883 733.559 133.623 732.161 123.866C730.763 114.11 735.675 108.234 742.39 107.271C749.105 106.309 755.47 110.569 756.868 120.325C758.267 130.082 753.355 135.958 746.639 136.92Z" fill="#000055"/>
<path d="M528.165 269.004L543.464 266.811L550.946 209.393L558.859 264.604L574.634 262.344L564.76 193.448L539.387 197.084L532.975 248.433L512.684 200.911L487.026 204.588L496.9 273.484L512.675 271.224L504.776 216.107L528.165 269.004ZM599.912 188.41L583.843 261.024L601.139 258.545L603.468 245.701L630.076 241.887L636.014 253.547L653.69 251.013L617.778 185.849L599.912 188.41ZM606.041 231.852L611.215 204.343L623.812 229.305L606.041 231.852ZM702.592 244.005L718.842 241.676L708.968 172.78L660.599 179.712L663.257 202.995C665.069 219.028 666.325 234.558 657.488 235.825L655.397 236.125L657.454 250.474L662.3 249.779C679.786 247.273 681.718 227.6 679.509 206.096L678.05 191.855L694.775 189.458L702.592 244.005ZM766.572 236.096C787.668 233.073 800.273 216.816 797.195 195.339C794.117 173.863 777.454 161.801 756.357 164.824C735.166 167.861 722.656 184.105 725.734 205.581C728.812 227.058 745.38 239.133 766.572 236.096ZM764.652 222.697C754.578 224.141 745.031 217.75 742.934 203.116C740.837 188.482 748.205 179.667 758.278 178.223C768.351 176.78 777.898 183.17 779.995 197.804C782.093 212.439 774.725 221.253 764.652 222.697ZM856.937 168.351C855.207 156.282 841.684 152.595 827.999 154.557C810.704 157.035 799.956 167.304 802.108 182.319L817.313 180.14C816.21 172.442 821.625 168.272 829.607 167.128C835.974 166.215 840.51 168.087 841.054 171.888C841.626 175.879 834.948 178.679 830.632 181.722C824.633 185.879 820.25 190.483 821.612 199.986C821.789 201.222 822.075 203.217 822.551 204.507L838.231 202.26L837.876 199.789C837.005 193.707 840.045 191.235 846.342 187.132C853.156 182.567 858.231 177.379 856.937 168.351ZM824.638 226.513L842.313 223.98L839.889 207.065L822.214 209.598L824.638 226.513Z" fill="#000055"/>
</svg>
