<svg width="880" height="239" viewBox="0 0 880 239" fill="none" xmlns="http://www.w3.org/2000/svg">
<path d="M28.8385 106.584C44.356 102.331 77.7288 93.471 87.0803 92.0592L732.383 18.2604L675.452 13.2613L854.979 0.407871L797.024 13.579L821.718 37.2022L879.592 31.0859L855.557 44.3772L819.019 85.0693L809.544 83.0603L805.076 117.473L53.1213 238.679L70.5934 229.654L65.7531 225.799C47.2687 228.48 8.56086 234.04 1.60458 234.828C-7.09077 235.813 29.2458 191.184 31.4603 187.41C33.232 184.391 51.9679 181.858 61.1145 180.968L77.7335 149.483L20.8026 144.484L80.3165 137.301L79.6184 127.252L50.7438 136.688L40.9392 116.222L65.7531 105.925L28.8385 106.584Z" fill="#FF267E"/>
</svg>
