<svg width="555" height="191" viewBox="0 0 555 191" fill="none" xmlns="http://www.w3.org/2000/svg">
<path d="M28.3232 63.4859C43.2511 59.3942 75.3558 50.8712 84.352 49.5131L436.61 17.7534L381.842 12.9443L554.548 0.579283L498.795 13.25L522.55 35.9756L551 30L537.5 49.5131L519.954 82.0239L510.839 80.0912L506.541 113.197L51.6833 190.561L68.4915 181.879L63.8352 178.171C46.0531 180.75 8.81605 186.099 2.12408 186.857C-6.24087 187.804 28.715 144.871 30.8454 141.241C32.5497 138.337 50.5738 135.9 59.3728 135.044L75.3604 104.755L20.5926 99.9455L77.8452 93.0355L77.1736 83.3684L49.3961 92.446L39.9641 72.7574L63.8351 62.8515L28.3232 63.4859Z" fill="#FF267E"/>
</svg>
