<svg width="56" height="37" viewBox="0 0 56 37" fill="none" xmlns="http://www.w3.org/2000/svg">
<symbol id="visa" viewBox="0 0 56 37" fill="transparent">
    <path d="M52.6153 2.78827H2.76917V7.17021H52.6153V2.78827Z" fill="#EDEDED"/>
<path d="M26.1352 12.0063L23.5429 24.0612H20.4074L23.0002 12.0063H26.1352ZM39.3262 19.7904L40.9765 15.2636L41.9259 19.7904H39.3262ZM42.8258 24.0612H45.7252L43.1923 12.0063H40.5177C39.9146 12.0063 39.4071 12.3542 39.1821 12.8903L34.4772 24.0612H37.7701L38.4237 22.2611H42.4458L42.8258 24.0612ZM34.6408 20.1257C34.6546 16.9445 30.2191 16.7681 30.2489 15.3468C30.2586 14.9147 30.6724 14.4542 31.5783 14.3368C32.0273 14.2792 33.2662 14.2328 34.6705 14.8764L35.2199 12.3188C34.4655 12.0477 33.4947 11.7863 32.287 11.7863C29.1874 11.7863 27.0071 13.424 26.9895 15.7709C26.9695 17.5065 28.5475 18.4742 29.7333 19.0519C30.9559 19.6424 31.3655 20.0222 31.36 20.5497C31.3517 21.3586 30.3844 21.7167 29.4847 21.7303C27.9072 21.7548 26.993 21.3063 26.2643 20.9683L25.6952 23.6108C26.4291 23.9449 27.7814 24.2356 29.181 24.2505C32.4761 24.2505 34.631 22.6321 34.6408 20.1257ZM21.655 12.0063L16.5748 24.0612H13.2609L10.7607 14.4407C10.6092 13.849 10.4772 13.6316 10.0165 13.3817C9.26214 12.9743 8.0176 12.5935 6.92288 12.3566L6.99708 12.0063H12.3325C13.0119 12.0063 13.6234 12.4565 13.7789 13.2349L15.0996 20.2113L18.3611 12.0063H21.655Z" fill="#EDEDED"/>
<path d="M52.6153 28.8676H2.76917V33.25H52.6153V28.8676Z" fill="#EDEDED"/>
<rect x="0.70146" y="0.720503" width="53.9817" height="34.5971" stroke="#EDEDED" stroke-width="1.40292"/>
</symbol>
</svg>
